<?xml version="1.0" encoding="UTF-8"?>
<!DOCTYPE svg PUBLIC "-//W3C//DTD SVG 1.1//EN" "http://www.w3.org/Graphics/SVG/1.1/DTD/svg11.dtd">
<svg xmlns="http://www.w3.org/2000/svg" version="1.1" width="160px" height="160px" style="shape-rendering:geometricPrecision; text-rendering:geometricPrecision; image-rendering:optimizeQuality; fill-rule:evenodd; clip-rule:evenodd" xmlns:xlink="http://www.w3.org/1999/xlink">
<g><path style="opacity:0.996" fill="#000000" d="M 125.5,53.5 C 124.167,53.8333 122.833,54.1667 121.5,54.5C 118.937,50.2642 115.27,47.5976 110.5,46.5C 104.613,47.2692 98.7794,48.2692 93,49.5C 87.7909,48.7396 82.6242,47.7396 77.5,46.5C 71.7545,47.6928 66.0879,49.1928 60.5,51C 51.869,57.722 49.2023,66.222 52.5,76.5C 53.038,78.1172 53.3713,79.7839 53.5,81.5C 53.8907,92.2389 52.0574,92.9056 48,83.5C 47.323,85.689 46.1563,86.0224 44.5,84.5C 41.4374,85.5271 38.6041,86.8604 36,88.5C 35.2712,93.6689 35.9379,98.6689 38,103.5C 40.4077,106.62 43.5743,107.953 47.5,107.5C 46.8333,108.5 46.1667,109.5 45.5,110.5C 34.0116,108.222 29.5116,101.222 32,89.5C 32.9143,87.3359 34.081,85.3359 35.5,83.5C 28.8536,68.2641 30.6869,54.2641 41,41.5C 41.49,40.2068 41.6567,38.8734 41.5,37.5C 43.9294,37.1156 46.2627,36.449 48.5,35.5C 48.5,33.8333 48.5,32.1667 48.5,30.5C 51.5959,31.0934 53.9292,30.0934 55.5,27.5C 56.086,27.7093 56.586,28.0426 57,28.5C 59.7255,27.358 62.2255,25.858 64.5,24C 69.156,23.4482 73.656,22.2815 78,20.5C 82.7769,21.0181 87.6103,21.0181 92.5,20.5C 93.4776,20.9767 94.3109,21.6433 95,22.5C 97.7764,21.3525 100.443,21.6858 103,23.5C 103.561,22.9781 104.228,22.6448 105,22.5C 108.215,24.4072 111.381,26.4072 114.5,28.5C 117.463,33.6211 120.963,38.2877 125,42.5C 125.499,46.1516 125.665,49.8183 125.5,53.5 Z"/></g>
<g><path style="opacity:1" fill="#cf8d61" d="M 121.5,54.5 C 121.785,56.288 121.452,57.9547 120.5,59.5C 115.823,53.3179 109.823,51.8179 102.5,55C 97.1437,57.5093 94.477,61.676 94.5,67.5C 92.8333,67.5 91.1667,67.5 89.5,67.5C 86.2353,55.5305 78.5686,51.3638 66.5,55C 58.1667,59.5257 55.1667,66.359 57.5,75.5C 55.7085,75.366 54.0418,75.6993 52.5,76.5C 49.2023,66.222 51.869,57.722 60.5,51C 66.0879,49.1928 71.7545,47.6928 77.5,46.5C 82.6242,47.7396 87.7909,48.7396 93,49.5C 98.7794,48.2692 104.613,47.2692 110.5,46.5C 115.27,47.5976 118.937,50.2642 121.5,54.5 Z"/></g>
<g><path style="opacity:1" fill="#0c080a" d="M 121.5,54.5 C 122.833,54.1667 124.167,53.8333 125.5,53.5C 125.411,58.8748 124.411,64.0415 122.5,69C 123.337,70.0113 123.67,71.1779 123.5,72.5C 127.646,72.5687 129.98,74.7353 130.5,79C 130.109,82.1766 128.943,85.01 127,87.5C 126.365,108.943 116.865,125.11 98.5,136C 73.3268,142.682 55.6601,134.182 45.5,110.5C 46.1667,109.5 46.8333,108.5 47.5,107.5C 48.1174,107.389 48.6174,107.056 49,106.5C 57.7126,128.606 73.5459,136.439 96.5,130C 118.037,118.42 126.203,100.587 121,76.5C 115.173,85.9066 107.507,87.9066 98,82.5C 95.9243,79.1069 94.7576,75.4402 94.5,71.5C 92.8333,71.5 91.1667,71.5 89.5,71.5C 88.4488,81.0525 83.1155,86.5525 73.5,88C 66.5207,88.5698 61.0207,86.0698 57,80.5C 55.8615,80.9891 54.6948,81.3225 53.5,81.5C 53.3713,79.7839 53.038,78.1172 52.5,76.5C 54.0418,75.6993 55.7085,75.366 57.5,75.5C 55.1667,66.359 58.1667,59.5257 66.5,55C 78.5686,51.3638 86.2353,55.5305 89.5,67.5C 91.1667,67.5 92.8333,67.5 94.5,67.5C 94.477,61.676 97.1437,57.5093 102.5,55C 109.823,51.8179 115.823,53.3179 120.5,59.5C 121.452,57.9547 121.785,56.288 121.5,54.5 Z"/></g>
<g><path style="opacity:1" fill="#fbfafc" d="M 71.5,57.5 C 83.5732,58.7269 87.7398,65.0602 84,76.5C 78.3954,83.7123 71.7287,85.0456 64,80.5C 60.2492,75.2386 59.5826,69.5719 62,63.5C 64.8552,60.7731 68.0219,58.7731 71.5,57.5 Z"/></g>
<g><path style="opacity:1" fill="#fdfdfd" d="M 104.5,57.5 C 116.457,56.2924 121.29,61.6257 119,73.5C 115.705,81.0669 110.205,83.5669 102.5,81C 97.3092,75.6736 96.1426,69.507 99,62.5C 100.73,60.5981 102.563,58.9314 104.5,57.5 Z"/></g>
<g><path style="opacity:1" fill="#d08d61" d="M 47.5,107.5 C 43.5743,107.953 40.4077,106.62 38,103.5C 35.9379,98.6689 35.2712,93.6689 36,88.5C 38.6041,86.8604 41.4374,85.5271 44.5,84.5C 46.1563,86.0224 47.323,85.689 48,83.5C 52.0574,92.9056 53.8907,92.2389 53.5,81.5C 54.6948,81.3225 55.8615,80.9891 57,80.5C 61.0207,86.0698 66.5207,88.5698 73.5,88C 83.1155,86.5525 88.4488,81.0525 89.5,71.5C 91.1667,71.5 92.8333,71.5 94.5,71.5C 94.7576,75.4402 95.9243,79.1069 98,82.5C 107.507,87.9066 115.173,85.9066 121,76.5C 126.203,100.587 118.037,118.42 96.5,130C 73.5459,136.439 57.7126,128.606 49,106.5C 48.6174,107.056 48.1174,107.389 47.5,107.5 Z"/></g>
<g><path style="opacity:1" fill="#c8885d" d="M 124.5,75.5 C 126.121,75.7869 127.121,76.7869 127.5,78.5C 126.764,80.5405 125.931,82.5405 125,84.5C 124.502,81.5184 124.335,78.5184 124.5,75.5 Z"/></g>
<g><path style="opacity:1" fill="#0e090b" d="M 93.5,80.5 C 100.071,84.9679 100.071,89.4679 93.5,94C 90.947,94.8513 88.6137,94.518 86.5,93C 88.556,90.5559 91.056,88.7226 94,87.5C 94.3336,85.1527 94.167,82.8194 93.5,80.5 Z"/></g>
<g><path style="opacity:1" fill="#000000" d="M 40.5,89.5 C 45.2133,89.2423 48.0466,91.2423 49,95.5C 48.6667,95.8333 48.3333,96.1667 48,96.5C 46.0315,92.8048 43.1982,91.8048 39.5,93.5C 39.1667,93 38.8333,92.5 38.5,92C 39.0556,90.9889 39.7222,90.1556 40.5,89.5 Z"/></g>
<g><path style="opacity:1" fill="#000000" d="M 38.5,99.5 C 39.5,99.5 40.5,99.5 41.5,99.5C 41.5,100.5 41.5,101.5 41.5,102.5C 40.5,102.5 39.5,102.5 38.5,102.5C 38.5,101.5 38.5,100.5 38.5,99.5 Z"/></g>
<g><path style="opacity:1" fill="#000000" d="M 43.5,102.5 C 44.5,102.5 45.5,102.5 46.5,102.5C 46.5,103.5 46.5,104.5 46.5,105.5C 45.5,105.5 44.5,105.5 43.5,105.5C 43.5,104.5 43.5,103.5 43.5,102.5 Z"/></g>
<g><path style="opacity:1" fill="#0e0a0b" d="M 103.5,102.5 C 105.355,102.272 106.188,102.939 106,104.5C 104.2,106.317 102.034,107.484 99.5,108C 96.1083,115.779 90.2749,120.613 82,122.5C 78.2482,121.624 74.9148,119.957 72,117.5C 68.8517,113.371 66.3517,108.871 64.5,104C 76.8011,104.56 89.1345,104.56 101.5,104C 102.416,103.722 103.082,103.222 103.5,102.5 Z"/></g>
</svg>
