<?xml version="1.0" encoding="UTF-8"?>
<!DOCTYPE svg PUBLIC "-//W3C//DTD SVG 1.1//EN" "http://www.w3.org/Graphics/SVG/1.1/DTD/svg11.dtd">
<svg xmlns="http://www.w3.org/2000/svg" version="1.1" width="160px" height="160px" style="shape-rendering:geometricPrecision; text-rendering:geometricPrecision; image-rendering:optimizeQuality; fill-rule:evenodd; clip-rule:evenodd" xmlns:xlink="http://www.w3.org/1999/xlink">
<g><path style="opacity:0.99" fill="#02612b" d="M 56.5,4.5 C 64.3646,6.3472 72.198,8.3472 80,10.5C 89.78,9.47142 99.4467,7.80476 109,5.5C 119.788,6.12111 125.955,11.7878 127.5,22.5C 134.085,25.2601 139.251,29.5934 143,35.5C 144.216,39.247 145.049,43.0803 145.5,47C 144.36,54.5341 143.027,62.0341 141.5,69.5C 144.463,76.8138 147.463,84.1472 150.5,91.5C 149.847,95.8085 148.347,99.8085 146,103.5C 138.27,110.026 135.77,118.193 138.5,128C 137.351,137.285 132.685,144.285 124.5,149C 121.078,150.87 117.411,151.703 113.5,151.5C 106.091,150.255 98.7576,148.588 91.5,146.5C 84.3774,147.226 77.7108,149.393 71.5,153C 68.8333,153.667 66.1667,153.667 63.5,153C 58.228,150.059 53.228,146.726 48.5,143C 41.516,142.746 34.516,142.079 27.5,141C 21.3393,135.089 18.3393,127.755 18.5,119C 19.0244,114.235 20.0244,109.569 21.5,105C 18.7419,99.9067 15.5752,95.0733 12,90.5C 9.22612,81.9434 10.2261,73.9434 15,66.5C 20.9847,63.0314 24.8181,58.0314 26.5,51.5C 23.4375,41.6112 23.9375,31.9445 28,22.5C 36.3875,14.5879 45.8875,8.5879 56.5,4.5 Z"/></g>
<g><path style="opacity:1" fill="#efc348" d="M 56.5,11.5 C 63.8264,13.4948 71.1598,15.4948 78.5,17.5C 86.9836,16.8366 95.3169,15.3366 103.5,13C 109.316,11.591 114.483,12.7576 119,16.5C 120.584,20.425 121.917,24.425 123,28.5C 127.883,30.2426 132.216,32.9093 136,36.5C 138.177,40.0308 139.344,43.8641 139.5,48C 138.36,55.5326 137.027,63.0326 135.5,70.5C 136.178,73.5443 137.011,76.5443 138,79.5C 140.838,83.6768 143.005,88.1768 144.5,93C 144.091,95.3207 143.257,97.4874 142,99.5C 133.239,107.116 130.072,116.616 132.5,128C 130.591,138.224 124.424,144.058 114,145.5C 106.912,143.436 99.7453,141.769 92.5,140.5C 88.804,140.783 85.1374,141.283 81.5,142C 77.1299,144.689 72.4633,146.522 67.5,147.5C 65.3659,147.485 63.3659,146.985 61.5,146C 56.1597,140.248 49.6597,136.748 42,135.5C 37.277,137.143 32.9437,136.476 29,133.5C 26.4498,128.807 24.9498,123.807 24.5,118.5C 25.9876,113.23 26.821,107.897 27,102.5C 24.4365,96.372 21.1032,90.7053 17,85.5C 16.3333,81.8333 16.3333,78.1667 17,74.5C 20.2981,70.2002 23.9648,66.2002 28,62.5C 32.4619,54.0627 32.6286,45.5627 28.5,37C 29.2893,33.4054 30.456,29.9054 32,26.5C 39.389,20.0637 47.5557,15.0637 56.5,11.5 Z"/></g>
<g><path style="opacity:1" fill="#000000" d="M 125.5,53.5 C 124.167,53.8333 122.833,54.1667 121.5,54.5C 118.937,50.2642 115.27,47.5976 110.5,46.5C 104.613,47.2692 98.7794,48.2692 93,49.5C 87.7909,48.7396 82.6242,47.7396 77.5,46.5C 71.7545,47.6928 66.0879,49.1928 60.5,51C 51.869,57.722 49.2023,66.222 52.5,76.5C 53.038,78.1172 53.3713,79.7839 53.5,81.5C 53.8907,92.2389 52.0574,92.9056 48,83.5C 47.323,85.689 46.1563,86.0224 44.5,84.5C 41.4374,85.5271 38.6041,86.8604 36,88.5C 35.2712,93.6689 35.9379,98.6689 38,103.5C 40.4077,106.62 43.5743,107.953 47.5,107.5C 46.8333,108.5 46.1667,109.5 45.5,110.5C 34.0116,108.222 29.5116,101.222 32,89.5C 32.9143,87.3359 34.081,85.3359 35.5,83.5C 28.4269,67.5741 30.7602,53.4074 42.5,41C 41.6634,39.9887 41.33,38.8221 41.5,37.5C 43.9294,37.1156 46.2627,36.449 48.5,35.5C 48.5,33.8333 48.5,32.1667 48.5,30.5C 51.5959,31.0934 53.9292,30.0934 55.5,27.5C 56.9621,28.4709 58.2954,28.1376 59.5,26.5C 60.086,26.7093 60.586,27.0426 61,27.5C 62.5,26.3333 64,25.1667 65.5,24C 69.7778,23.2409 73.9445,22.0742 78,20.5C 82.7769,21.0181 87.6103,21.0181 92.5,20.5C 93.7973,22.3668 95.2973,22.7002 97,21.5C 99.7418,22.708 102.408,23.0413 105,22.5C 108.686,24.4778 112.186,26.8111 115.5,29.5C 118.11,34.1089 121.11,38.4422 124.5,42.5C 125.259,46.2784 125.592,49.945 125.5,53.5 Z"/></g>
<g><path style="opacity:1" fill="#cf8d61" d="M 121.5,54.5 C 121.785,56.288 121.452,57.9547 120.5,59.5C 115.823,53.3179 109.823,51.8179 102.5,55C 97.1437,57.5093 94.477,61.676 94.5,67.5C 92.8333,67.5 91.1667,67.5 89.5,67.5C 86.2353,55.5305 78.5686,51.3638 66.5,55C 58.1667,59.5257 55.1667,66.359 57.5,75.5C 55.7085,75.366 54.0418,75.6993 52.5,76.5C 49.2023,66.222 51.869,57.722 60.5,51C 66.0879,49.1928 71.7545,47.6928 77.5,46.5C 82.6242,47.7396 87.7909,48.7396 93,49.5C 98.7794,48.2692 104.613,47.2692 110.5,46.5C 115.27,47.5976 118.937,50.2642 121.5,54.5 Z"/></g>
<g><path style="opacity:1" fill="#d08d61" d="M 47.5,107.5 C 43.5743,107.953 40.4077,106.62 38,103.5C 35.9379,98.6689 35.2712,93.6689 36,88.5C 38.6041,86.8604 41.4374,85.5271 44.5,84.5C 46.1563,86.0224 47.323,85.689 48,83.5C 52.0574,92.9056 53.8907,92.2389 53.5,81.5C 54.6948,81.3225 55.8615,80.9891 57,80.5C 65.4972,90.3174 74.8305,90.9841 85,82.5C 87.6161,79.2706 89.1161,75.6039 89.5,71.5C 91.1667,71.5 92.8333,71.5 94.5,71.5C 96.144,84.9627 103.144,88.796 115.5,83C 117.452,80.9261 119.285,78.7594 121,76.5C 126.203,100.587 118.037,118.42 96.5,130C 73.5459,136.439 57.7126,128.606 49,106.5C 48.6174,107.056 48.1174,107.389 47.5,107.5 Z"/></g>
<g><path style="opacity:1" fill="#0e0a0b" d="M 121.5,54.5 C 122.833,54.1667 124.167,53.8333 125.5,53.5C 125.411,58.8748 124.411,64.0415 122.5,69C 123.337,70.0113 123.67,71.1779 123.5,72.5C 127.782,72.6397 130.115,74.973 130.5,79.5C 130.012,83.3099 128.345,86.4766 125.5,89C 125.881,109.889 116.881,125.556 98.5,136C 73.4367,142.466 55.7701,133.966 45.5,110.5C 46.1667,109.5 46.8333,108.5 47.5,107.5C 48.1174,107.389 48.6174,107.056 49,106.5C 57.7126,128.606 73.5459,136.439 96.5,130C 118.037,118.42 126.203,100.587 121,76.5C 119.285,78.7594 117.452,80.9261 115.5,83C 103.144,88.796 96.144,84.9627 94.5,71.5C 92.8333,71.5 91.1667,71.5 89.5,71.5C 89.1161,75.6039 87.6161,79.2706 85,82.5C 74.8305,90.9841 65.4972,90.3174 57,80.5C 55.8615,80.9891 54.6948,81.3225 53.5,81.5C 53.3713,79.7839 53.038,78.1172 52.5,76.5C 54.0418,75.6993 55.7085,75.366 57.5,75.5C 55.1667,66.359 58.1667,59.5257 66.5,55C 78.5686,51.3638 86.2353,55.5305 89.5,67.5C 91.1667,67.5 92.8333,67.5 94.5,67.5C 94.477,61.676 97.1437,57.5093 102.5,55C 109.823,51.8179 115.823,53.3179 120.5,59.5C 121.452,57.9547 121.785,56.288 121.5,54.5 Z"/></g>
<g><path style="opacity:1" fill="#fdfdfd" d="M 104.5,57.5 C 116.457,56.2924 121.29,61.6257 119,73.5C 115.705,81.0669 110.205,83.5669 102.5,81C 97.3092,75.6736 96.1426,69.507 99,62.5C 100.73,60.5981 102.563,58.9314 104.5,57.5 Z"/></g>
<g><path style="opacity:1" fill="#fbfafc" d="M 71.5,57.5 C 83.5732,58.7269 87.7398,65.0602 84,76.5C 78.3954,83.7123 71.7287,85.0456 64,80.5C 60.2492,75.2386 59.5826,69.5719 62,63.5C 64.8552,60.7731 68.0219,58.7731 71.5,57.5 Z"/></g>
<g><path style="opacity:1" fill="#c8885d" d="M 124.5,75.5 C 126.121,75.7869 127.121,76.7869 127.5,78.5C 126.764,80.5405 125.931,82.5405 125,84.5C 124.502,81.5184 124.335,78.5184 124.5,75.5 Z"/></g>
<g><path style="opacity:1" fill="#0e090b" d="M 93.5,80.5 C 100.071,84.9679 100.071,89.4679 93.5,94C 90.947,94.8513 88.6137,94.518 86.5,93C 88.556,90.5559 91.056,88.7226 94,87.5C 94.3336,85.1527 94.167,82.8194 93.5,80.5 Z"/></g>
<g><path style="opacity:1" fill="#000000" d="M 40.5,89.5 C 45.2133,89.2423 48.0466,91.2423 49,95.5C 48.6667,95.8333 48.3333,96.1667 48,96.5C 46.0315,92.8048 43.1982,91.8048 39.5,93.5C 39.1667,93 38.8333,92.5 38.5,92C 39.0556,90.9889 39.7222,90.1556 40.5,89.5 Z"/></g>
<g><path style="opacity:1" fill="#000000" d="M 38.5,99.5 C 39.5,99.5 40.5,99.5 41.5,99.5C 41.5,100.5 41.5,101.5 41.5,102.5C 40.5,102.5 39.5,102.5 38.5,102.5C 38.5,101.5 38.5,100.5 38.5,99.5 Z"/></g>
<g><path style="opacity:1" fill="#000000" d="M 43.5,102.5 C 44.5,102.5 45.5,102.5 46.5,102.5C 46.5,103.5 46.5,104.5 46.5,105.5C 45.5,105.5 44.5,105.5 43.5,105.5C 43.5,104.5 43.5,103.5 43.5,102.5 Z"/></g>
<g><path style="opacity:1" fill="#0e0a0b" d="M 103.5,102.5 C 105.355,102.272 106.188,102.939 106,104.5C 104.2,106.317 102.034,107.484 99.5,108C 96.1083,115.779 90.2749,120.613 82,122.5C 78.2482,121.624 74.9148,119.957 72,117.5C 68.8517,113.371 66.3517,108.871 64.5,104C 76.8011,104.56 89.1345,104.56 101.5,104C 102.416,103.722 103.082,103.222 103.5,102.5 Z"/></g>
</svg>
