<?xml version="1.0" encoding="UTF-8"?>
<svg version="1.1" xmlns="http://www.w3.org/2000/svg" width="250" height="150">
<path d="M0 0 C3.12133179 1.93225301 3.72071295 3.21799626 4.9375 6.625 C5.02465767 11.33151413 4.10861517 15.767545 2 20 C-0.11328125 21.296875 -0.11328125 21.296875 -2 22 C-2 22.66 -2 23.32 -2 24 C-1.01 24.33 -0.02 24.66 1 25 C4.19165481 34.57496442 1.39327766 46.19729648 0 56 C0.45375 55.505 0.9075 55.01 1.375 54.5 C3 53 3 53 5 53 C4.40546697 63.55808656 4.40546697 63.55808656 1 68 C-0.65 67.67 -2.3 67.34 -4 67 C-6.61759526 59.67718155 -7.48320756 52.99794425 -7.625 45.25 C-7.79319641 36.57655363 -7.79319641 36.57655363 -9 28 C-10.32 27.67 -11.64 27.34 -13 27 C-12.86033274 30.70859231 -12.71216836 34.4167989 -12.5625 38.125 C-12.52318359 39.17171875 -12.48386719 40.2184375 -12.44335938 41.296875 C-12.40146484 42.31523438 -12.35957031 43.33359375 -12.31640625 44.3828125 C-12.27974854 45.31496582 -12.24309082 46.24711914 -12.20532227 47.20751953 C-11.988398 50.15779276 -11.48633123 53.08201264 -11 56 C-15.62 56.33 -20.24 56.66 -25 57 C-23 51 -23 51 -21.89160156 48.55249023 C-20.7637724 45.32372412 -20.74084034 42.57778298 -20.734375 39.16015625 C-20.73050781 37.1946582 -20.73050781 37.1946582 -20.7265625 35.18945312 C-20.73075195 34.51148682 -20.73494141 33.83352051 -20.73925781 33.13500977 C-20.7499501 31.07212795 -20.7393493 29.01012032 -20.7265625 26.94726562 C-20.72914062 25.63564453 -20.73171875 24.32402344 -20.734375 22.97265625 C-20.73663086 21.77906494 -20.73888672 20.58547363 -20.74121094 19.35571289 C-21.00747169 15.90311469 -21.65563009 13.1859198 -23 10 C-23.66 9.67 -24.32 9.34 -25 9 C-25 8.34 -25 7.68 -25 7 C-9.2215868 -2.0293985 -9.2215868 -2.0293985 0 0 Z M-13 10 C-13 12.97 -13 15.94 -13 19 C-7.76195345 17.61082981 -7.76195345 17.61082981 -4 14 C-3.74930087 11.37429296 -3.74930087 11.37429296 -4 9 C-8.19589427 7.83447381 -8.82091936 7.91045968 -13 10 Z " fill="#000000" transform="translate(121,62)"/>
<path d="M0 0 C3.33859722 5.74980632 3.44314477 10.65096339 2.125 16.9375 C0.5625 19.8125 0.5625 19.8125 -0.875 21.9375 C-1.05990007 24.26107511 -1.05990007 24.26107511 1.125 26.9375 C1.26025391 29.94018555 1.26025391 29.94018555 1.1015625 33.57421875 C1.05 34.87294922 0.9984375 36.17167969 0.9453125 37.50976562 C0.88043549 38.88152118 0.81532837 40.25326587 0.75 41.625 C0.69174379 43.00842326 0.63444085 44.39188702 0.578125 45.77539062 C0.43647124 49.16327631 0.28503846 52.55044104 0.125 55.9375 C1.115 55.4425 1.115 55.4425 2.125 54.9375 C2.5976477 63.13006018 2.5976477 63.13006018 0.625 66.5 C0.13 66.974375 -0.365 67.44875 -0.875 67.9375 C-3.25 67.6875 -3.25 67.6875 -5.875 66.9375 C-8.26083066 63.55332514 -8.09370753 60.42006546 -8.03515625 56.37890625 C-8.02419922 55.10595703 -8.01324219 53.83300781 -8.00195312 52.52148438 C-7.98118403 51.18097831 -7.95969289 49.84048325 -7.9375 48.5 C-7.90094034 45.87628813 -7.87287308 43.25278363 -7.84765625 40.62890625 C-7.82968994 39.46560791 -7.81172363 38.30230957 -7.79321289 37.10375977 C-7.86718969 34.23986374 -8.20990131 31.71618524 -8.875 28.9375 C-10.195 28.6075 -11.515 28.2775 -12.875 27.9375 C-12.76451407 31.64641391 -12.63402886 35.35436811 -12.5 39.0625 C-12.4690625 40.10921875 -12.438125 41.1559375 -12.40625 42.234375 C-12.36757812 43.25273438 -12.32890625 44.27109375 -12.2890625 45.3203125 C-12.2576416 46.25246582 -12.2262207 47.18461914 -12.19384766 48.14501953 C-11.90355277 51.540389 -11.90355277 51.540389 -9.875 56.9375 C-14.165 56.9375 -18.455 56.9375 -22.875 56.9375 C-22.215 55.6175 -21.555 54.2975 -20.875 52.9375 C-20.58171756 50.61798577 -20.58171756 50.61798577 -20.63208008 48.12475586 C-20.62900345 47.17374496 -20.62592682 46.22273407 -20.62275696 45.24290466 C-20.62994247 44.22301956 -20.63712799 43.20313446 -20.64453125 42.15234375 C-20.64498947 41.0997084 -20.64544769 40.04707306 -20.6459198 38.96253967 C-20.64893865 36.7392565 -20.65681395 34.51597538 -20.66918945 32.29272461 C-20.68744896 28.8845269 -20.68969905 25.47660091 -20.68945312 22.06835938 C-20.6943684 19.90885181 -20.70019676 17.74934609 -20.70703125 15.58984375 C-20.70870049 14.05697975 -20.70870049 14.05697975 -20.71040344 12.4931488 C-20.71997322 11.0713607 -20.71997322 11.0713607 -20.72973633 9.62084961 C-20.73354813 8.78686142 -20.73735992 7.95287323 -20.74128723 7.09361267 C-20.79376703 4.75303058 -20.79376703 4.75303058 -21.875 1.9375 C-4.94586614 -2.80265748 -4.94586614 -2.80265748 0 0 Z M-12.875 7.9375 C-12.875 11.8975 -12.875 15.8575 -12.875 19.9375 C-8.65060403 17.82530202 -7.75925516 17.08286134 -5.875 12.9375 C-5.62363967 9.72833829 -5.62363967 9.72833829 -5.875 6.9375 C-9.50385324 6.78600702 -9.50385324 6.78600702 -12.875 7.9375 Z " fill="#000000" transform="translate(149.875,61.0625)"/>
<path d="M0 0 C1.484375 2.72265625 1.484375 2.72265625 2.75 6.0625 C3.17796875 7.16722656 3.6059375 8.27195312 4.046875 9.41015625 C4.36140625 10.26480469 4.6759375 11.11945312 5 12 C0.72290301 12 -0.55930376 11.29379749 -4 9 C-3.13422591 18.0040505 0.88870674 25.21877048 5.00146484 33.08740234 C6.413134 35.79131828 7.79180117 38.50647513 9.125 41.25 C9.54007813 42.08015625 9.95515625 42.9103125 10.3828125 43.765625 C11 46 11 46 10.1171875 48.296875 C9.74851563 48.85890625 9.37984375 49.4209375 9 50 C7.68 50 6.36 50 5 50 C4.525625 48.989375 4.05125 47.97875 3.5625 46.9375 C0.81908284 42.04922942 -3.48900092 39.1711938 -8 36 C-7.58427734 37.25103516 -7.58427734 37.25103516 -7.16015625 38.52734375 C-1.50228004 56.10501609 -1.50228004 56.10501609 -6 66 C-7.32 66 -8.64 66 -10 66 C-11.03041513 64.04669132 -12.0490893 62.08718472 -13.0625 60.125 C-13.63097656 59.03445312 -14.19945313 57.94390625 -14.78515625 56.8203125 C-15.18605469 55.88960937 -15.58695313 54.95890625 -16 54 C-15.67 53.34 -15.34 52.68 -15 52 C-14.44819709 45.49710749 -15.60081667 41.71723159 -18.9375 36.1875 C-19.33702881 35.49825439 -19.73655762 34.80900879 -20.14819336 34.09887695 C-23.39539436 28.64756139 -27.11095356 23.86589287 -31.34765625 19.13671875 C-33 17 -33 17 -33 14 C-23.1471888 14.45614867 -16.76118007 18.17911495 -9 24 C-9.31195313 23.3090625 -9.62390625 22.618125 -9.9453125 21.90625 C-11.10421259 18.71283641 -11.55127468 15.87937649 -11.875 12.5 C-11.99617188 11.3965625 -12.11734375 10.293125 -12.2421875 9.15625 C-11.9406126 5.22604808 -10.71842542 3.77817103 -8 1 C-5.04430871 -1.03203776 -3.31036838 -1.48461177 0 0 Z " fill="#000000" transform="translate(47,32)"/>
<path d="M0 0 C6.85165497 1.05718699 11.82968801 3.28879779 17.5625 7.125 C18.28501953 7.59292969 19.00753906 8.06085937 19.75195312 8.54296875 C21.50910815 9.683374 23.25571884 10.83999952 25 12 C24.41399092 17.06572295 23.32728431 21.53638581 21.625 26.375 C21.20476562 27.59960938 20.78453125 28.82421875 20.3515625 30.0859375 C19.68253906 31.52839844 19.68253906 31.52839844 19 33 C18.01 33.33 17.02 33.66 16 34 C16.03480469 33.41992188 16.06960937 32.83984375 16.10546875 32.2421875 C16.28539189 27.05011989 16.05260678 23.42101672 13 19 C9.80487632 16.60619909 9.80487632 16.60619909 6 16 C3.70954986 20.81209901 3.70954986 20.81209901 3 26 C5.97 26.33 8.94 26.66 12 27 C11.55005243 28.79379098 11.08975857 30.58498928 10.625 32.375 C10.24214844 33.87160156 10.24214844 33.87160156 9.8515625 35.3984375 C9 38 9 38 7 40 C6.62875 39.21625 6.2575 38.4325 5.875 37.625 C3.56693694 34.39371171 1.78383679 33.92493788 -2 33 C-2.28875 34.11375 -2.5775 35.2275 -2.875 36.375 C-4 40 -4 40 -6 42 C0.73554115 45.97224222 7.40690431 46.75225285 15 45 C14.35408749 48.94804948 13.14034269 52.32929179 11.5625 56 C10.00175368 59.65261229 8.46002395 63.30579988 7 67 C3.52022612 64.28407892 0.53698804 61.56294494 -2.3125 58.1875 C-7.45280265 52.1695847 -13.10777182 46.92977922 -20 43 C-19 40 -19 40 -16.3125 38.3125 C-8.59043614 33.37998553 -4.55187796 24.51267969 -2 16 C-0.97720767 10.71045696 -0.45604994 5.36369187 0 0 Z " fill="#000000" transform="translate(211,27)"/>
<path d="M0 0 C2.64 0 5.28 0 8 0 C8.16604736 1.24088379 8.16604736 1.24088379 8.33544922 2.50683594 C8.75098965 5.58641865 9.1729079 8.66504176 9.59912109 11.74316406 C9.87177555 13.72654427 10.13710412 15.71092709 10.40234375 17.6953125 C10.57636719 18.94570313 10.75039062 20.19609375 10.9296875 21.484375 C11.08679199 22.63647461 11.24389648 23.78857422 11.40576172 24.97558594 C12.0551039 28.79613976 12.0551039 28.79613976 14 32 C16.31 32.33 18.62 32.66 21 33 C21 38.28 21 43.56 21 49 C12.75675676 49 12.75675676 49 8 45 C5.42297891 41.56397188 5 40.39927132 5 36 C2.525 36.495 2.525 36.495 0 37 C-0.15855469 37.59167969 -0.31710938 38.18335938 -0.48046875 38.79296875 C-2.01525612 43.99089504 -3.36244615 47.80524068 -8 51 C-10.80528633 51.3962858 -13.14453105 51.24198889 -16 51 C-18.01167675 45.21642935 -18.22084624 40.09781001 -18 34 C-16.8553125 34.0928125 -16.8553125 34.0928125 -15.6875 34.1875 C-13.05578796 34.22029673 -13.05578796 34.22029673 -11.37109375 32.953125 C-9.37083499 30.10375355 -8.23613444 27.0000646 -7.0625 23.75 C-6.80452637 23.05068359 -6.54655273 22.35136719 -6.28076172 21.63085938 C-3.72495079 14.53756955 -1.78821108 7.32114654 0 0 Z M2 19 C1.34 22.3 0.68 25.6 0 29 C1.65 29 3.3 29 5 29 C4.34 25.7 3.68 22.4 3 19 C2.67 19 2.34 19 2 19 Z " fill="#000000" transform="translate(124,9)"/>
<path d="M0 0 C2 1 2 1 2.7890625 3.01171875 C3.20285156 4.33623047 3.20285156 4.33623047 3.625 5.6875 C5.3391002 10.63501647 7.52044485 15.04352059 10.125 19.5625 C10.47385254 20.16989014 10.82270508 20.77728027 11.18212891 21.40307617 C12.62939679 23.86831392 13.97027061 25.97027061 16 28 C18.58354218 28.16687448 18.58354218 28.16687448 21 28 C22.95714283 33.78988088 24.52257862 38.85970117 24 45 C23 46 23 46 19.375 46.0625 C15.35577815 45.54925404 13.72192236 44.04974706 11.125 41 C10.57070312 40.278125 10.01640625 39.55625 9.4453125 38.8125 C8.11322761 36.88140911 8.11322761 36.88140911 6 36 C6.33 36.99 6.66 37.98 7 39 C7.54010357 45.37322215 6.58993642 49.65797857 3 55 C0.9375 57.0625 0.9375 57.0625 -1 58 C-4.77141154 56.74286282 -5.05175299 55.65317783 -6.8125 52.1875 C-7.27269531 51.31480469 -7.73289063 50.44210938 -8.20703125 49.54296875 C-9 47 -9 47 -8.26171875 45.05078125 C-7.63716797 44.03564453 -7.63716797 44.03564453 -7 43 C-4.85349822 37.89838275 -4.84745975 33.77327054 -5.25 28.375 C-5.3015625 27.58536865 -5.353125 26.7957373 -5.40625 25.98217773 C-5.9370004 18.57051985 -6.64105773 11.07682682 -9 4 C-7.54618103 3.30300448 -6.08677047 2.61766134 -4.625 1.9375 C-3.40683594 1.36322266 -3.40683594 1.36322266 -2.1640625 0.77734375 C-1.44992188 0.52082031 -0.73578125 0.26429687 0 0 Z M2 20 C2 23.3 2 26.6 2 30 C3.65 29.34 5.3 28.68 7 28 C5.68 25.36 4.36 22.72 3 20 C2.67 20 2.34 20 2 20 Z " fill="#000000" transform="translate(64,22)"/>
<path d="M0 0 C4.14890851 2.91544922 4.84956606 6.19582735 6 11 C6.71331148 20.51431635 7.37942579 33.12231999 2.125 41.5625 C-0.53921818 44.61851497 -2.56070549 46.4697336 -6.375 47.875 C-10.12106621 48.05338411 -11.90786181 47.10528558 -15 45 C-20.0686377 38.83544064 -20.19321341 31.76878911 -20 24 C-19.09594362 15.6809427 -17.46938337 7.80262241 -11 2 C-10.34 2 -9.68 2 -9 2 C-9 1.34 -9 0.68 -9 0 C-5.81452856 -1.59273572 -3.39809153 -0.76164121 0 0 Z M-6 6 C-10.45234059 12.67851088 -10.91045668 23.10937546 -10 31 C-9.20439477 33.82370873 -8.19641079 36.30807572 -7 39 C-6.34 39 -5.68 39 -5 39 C-2.86591334 33.76640652 -2.69760636 29.1787257 -2.75 23.625 C-2.74226563 22.81289062 -2.73453125 22.00078125 -2.7265625 21.1640625 C-2.74378934 15.78928771 -3.50446999 11.16313932 -5 6 C-5.33 6 -5.66 6 -6 6 Z " fill="#000000" transform="translate(92,71)"/>
<path d="M0 0 C0 6.6 0 13.2 0 20 C-4 16 -4 16 -6 13 C-7.32 13 -8.64 13 -10 13 C-8.75474368 25.61641275 -6.05156396 36.95383215 -2 49 C-4.09950586 49.86555948 -6.2047907 50.71711277 -8.3125 51.5625 C-9.48425781 52.03816406 -10.65601563 52.51382813 -11.86328125 53.00390625 C-15 54 -15 54 -18 53 C-17.84144531 52.32582031 -17.68289062 51.65164062 -17.51953125 50.95703125 C-15.38266185 38.79454904 -17.53578058 27.62987947 -21 16 C-21.66 16 -22.32 16 -23 16 C-23.66 19.3 -24.32 22.6 -25 26 C-27 25 -27 25 -27.68603516 23.32592773 C-27.98453369 22.26547241 -27.98453369 22.26547241 -28.2890625 21.18359375 C-28.50820312 20.41982422 -28.72734375 19.65605469 -28.953125 18.86914062 C-29.28570312 17.66547852 -29.28570312 17.66547852 -29.625 16.4375 C-29.85445313 15.63119141 -30.08390625 14.82488281 -30.3203125 13.99414062 C-30.88724154 11.99807797 -31.44452643 9.99928081 -32 8 C-21.76377994 0.77830886 -12.38711856 -0.39958447 0 0 Z " fill="#000000" transform="translate(108,12)"/>
<path d="M0 0 C7.83844065 -0.28912281 16.79662146 -0.50470451 23 5 C23.63765985 8.24147015 23.46881193 11.4001399 23.3125 14.6875 C23.28994141 15.58017578 23.26738281 16.47285156 23.24414062 17.39257812 C23.18520574 19.59674272 23.10300818 21.79752672 23 24 C22.34 24.33 21.68 24.66 21 25 C20.54560547 23.75283203 20.54560547 23.75283203 20.08203125 22.48046875 C19.66308594 21.39378906 19.24414062 20.30710937 18.8125 19.1875 C18.40644531 18.10855469 18.00039062 17.02960938 17.58203125 15.91796875 C16.01117544 12.4302841 16.01117544 12.4302841 11 10 C11 14.29 11 18.58 11 23 C11.99 21.68 12.98 20.36 14 19 C14.66 19 15.32 19 16 19 C16.22307542 21.2277397 16.42788178 23.45731364 16.625 25.6875 C16.79902344 27.54955078 16.79902344 27.54955078 16.9765625 29.44921875 C16.99953004 32.92880169 16.54051631 34.92484721 15 38 C13 37 13 37 11 32 C11 36.62 11 41.24 11 46 C16.89304511 45.26877003 16.89304511 45.26877003 21 42 C22.28008262 38.91222828 22.28008262 38.91222828 23 36 C23.66 36.33 24.32 36.66 25 37 C25.02684312 39.81256281 25.04676188 42.62487241 25.0625 45.4375 C25.07087891 46.23994141 25.07925781 47.04238281 25.08789062 47.86914062 C25.0965143 49.91295221 25.0522815 51.95683902 25 54 C24 55 24 55 21.68334961 55.11352539 C20.68311768 55.10828857 19.68288574 55.10305176 18.65234375 55.09765625 C17.57275391 55.09443359 16.49316406 55.09121094 15.38085938 55.08789062 C14.24455078 55.07951172 13.10824219 55.07113281 11.9375 55.0625 C10.79732422 55.05798828 9.65714844 55.05347656 8.48242188 55.04882812 C5.65489649 55.03699747 2.8274736 55.0205141 0 55 C0.76166139 48.39893466 0.76166139 48.39893466 2.0246582 46.28491211 C3.49712574 42.83539429 3.26474477 39.37873248 3.23046875 35.69140625 C3.23001053 34.88767075 3.22955231 34.08393524 3.2290802 33.25584412 C3.22606418 31.55881267 3.21819733 29.86178384 3.20581055 28.16479492 C3.18758977 25.57525758 3.18530079 22.98607907 3.18554688 20.39648438 C3.18062971 18.74478859 3.17480053 17.09309522 3.16796875 15.44140625 C3.16685593 14.67043106 3.1657431 13.89945587 3.16459656 13.1051178 C3.13107826 9.28310651 2.92222614 5.7160424 2 2 C1.34 2 0.68 2 0 2 C0 1.34 0 0.68 0 0 Z " fill="#000000" transform="translate(153,63)"/>
<path d="M0 0 C6.34878984 1.05259168 11.27416969 3.46261567 15.2890625 8.67285156 C18.46197609 13.28735089 21.25094567 18.12491335 24 23 C24.61359375 24.06992188 25.2271875 25.13984375 25.859375 26.2421875 C28.55394219 31.0577259 30.91582066 35.89376062 33 41 C33.66 42.32 34.32 43.64 35 45 C29.39 45 23.78 45 18 45 C18 44.34 18 43.68 18 43 C18.99 42.34 19.98 41.68 21 41 C21.36362818 38.79274927 21.36362818 38.79274927 21.1875 36.375 C21.125625 34.93125 21.06375 33.4875 21 32 C17.7 32 14.4 32 11 32 C10.7937496 37.15625988 11.30069281 39.90207844 13 45 C8.38 45 3.76 45 -1 45 C-0.30668821 41.53344106 0.40818076 38.75663014 1.5625 35.5 C4.49670553 25.74340525 3.24438739 16.47087685 0.65625 6.77734375 C0 4 0 4 0 0 Z M11 16 C11 18.97 11 21.94 11 25 C12.65 25 14.3 25 16 25 C15.42647107 21.12867972 13.51295648 18.91827204 11 16 Z " fill="#000000" transform="translate(181,73)"/>
<path d="M0 0 C0.99 1.485 0.99 1.485 2 3 C1.21141602 3.23340088 0.42283203 3.46680176 -0.38964844 3.70727539 C-3.13012159 4.74574216 -3.13012159 4.74574216 -4.10253906 7.10717773 C-4.32135742 7.95739502 -4.54017578 8.8076123 -4.765625 9.68359375 C-5.01570313 10.61107422 -5.26578125 11.53855469 -5.5234375 12.49414062 C-5.76320312 13.46544922 -6.00296875 14.43675781 -6.25 15.4375 C-6.63285156 16.88866211 -6.63285156 16.88866211 -7.0234375 18.36914062 C-7.49694274 20.16472234 -7.96173222 21.96264073 -8.41503906 23.76342773 C-8.87650067 25.52780578 -9.42328719 27.26986156 -10 29 C-10.03954234 31.33299825 -10.04401732 33.66708189 -10 36 C-6.35044994 36.33949303 -4.50316613 36.32346394 -1.375 34.3125 C1.07567462 32.02380661 1.07567462 32.02380661 3.1875 29.25 C3.785625 28.5075 4.38375 27.765 5 27 C5.66 27 6.32 27 7 27 C6.39700836 34.23589973 4.8849413 40.99370876 3 48 C1.88625 47.71125 0.7725 47.4225 -0.375 47.125 C-6.17594255 45.80999534 -12.05526878 45.27235706 -17.96630859 44.69775391 C-23.8991603 44.1008397 -23.8991603 44.1008397 -25 43 C-25.14115161 40.32941149 -25.04247107 37.67567762 -25 35 C-23.515 34.505 -23.515 34.505 -22 34 C-20.96852069 31.60911442 -20.1401424 29.34990505 -19.375 26.875 C-19.1584375 26.22273438 -18.941875 25.57046875 -18.71875 24.8984375 C-16.30148148 17.37804656 -14.44261228 8.67216315 -17 1 C-17.66 0.67 -18.32 0.34 -19 0 C-19 -0.66 -19 -1.32 -19 -2 C-12.06541148 -4.31152951 -6.42189355 -2.98950217 0 0 Z " fill="#000000" transform="translate(172,14)"/>
<path d="M0 0 C0.91815491 -0.03542908 1.83630981 -0.07085815 2.7822876 -0.10736084 C6.98061294 -0.23173227 11.17883999 -0.32186802 15.37841797 -0.39160156 C17.59024367 -0.43833713 19.80172327 -0.50657579 22.01220703 -0.59667969 C40.42491649 -1.33395836 40.42491649 -1.33395836 45.50097656 2.71972656 C47.69793309 6.10697776 49.45605469 9.17717942 49.45605469 13.28808594 C43.51532682 13.36273743 37.57487739 13.41692366 31.63378906 13.45288086 C29.61648801 13.46788478 27.59921912 13.48829449 25.58203125 13.5144043 C22.66756205 13.55115947 19.75352743 13.56789662 16.83886719 13.58105469 C15.5054277 13.60428047 15.5054277 13.60428047 14.14505005 13.62797546 C5.57350545 13.63023354 -1.74048188 11.04388136 -9.64941406 7.98339844 C-12.57060323 6.9112919 -15.54137922 6.10128092 -18.54394531 5.28808594 C-18.21394531 4.62808594 -17.88394531 3.96808594 -17.54394531 3.28808594 C-15.36425781 2.69042969 -15.36425781 2.69042969 -12.66894531 2.22558594 C-0.0653759 0.00250737 -0.0653759 0.00250737 0 0 Z " fill="#EFC348" transform="translate(67.5439453125,121.7119140625)"/>
<path d="M0 0 C4.22910869 -0.05817206 8.45811409 -0.09365463 12.6875 -0.125 C14.48477539 -0.15013672 14.48477539 -0.15013672 16.31835938 -0.17578125 C17.47529297 -0.18222656 18.63222656 -0.18867187 19.82421875 -0.1953125 C21.41882935 -0.21102295 21.41882935 -0.21102295 23.0456543 -0.22705078 C26.09241319 0.00710225 28.20775838 0.82202773 31 2 C33.00899487 1.72604615 35.00889599 1.38290462 37 1 C43.25967232 0.47359246 47.20818692 1.42586086 53 4 C56.79259397 4.2528396 59.39894834 4.20035055 63 3 C62.72072948 6.35124622 62.25148468 7.74111872 59.875 10.1875 C54.48796833 13.58367214 48.34345062 15.06939397 42 14 C39.93510259 13.01897594 38.05163124 11.95142048 36.15234375 10.6796875 C33.35927874 9.79766697 31.69308665 10.69248547 28.97239685 11.51754761 C25.70714899 12.31623406 22.43508697 12.24555397 19.09765625 12.1953125 C18.3750914 12.1924826 17.65252655 12.18965271 16.9080658 12.18673706 C14.62603384 12.17564386 12.34441103 12.15056088 10.0625 12.125 C8.50456301 12.11495611 6.94661979 12.10583274 5.38867188 12.09765625 C1.59229301 12.07574033 -2.2037844 12.04128738 -6 12 C-5.30887592 8.91749936 -4.58584451 7.21308434 -2.4375 4.875 C0.21556175 2.37395127 0.21556175 2.37395127 0 0 Z " fill="#000000" transform="translate(154,123)"/>
<path d="M0 0 C-0.11389875 1.79240663 -0.24147687 3.58394835 -0.375 5.375 C-0.44460937 6.37273437 -0.51421875 7.37046875 -0.5859375 8.3984375 C-1 11 -1 11 -3 13 C-3.33 12.67 -3.66 12.34 -4 12 C-7.08998876 11.91225184 -10.00799259 12.22448845 -13 13 C-16.1003075 15.94529212 -17.79857655 18.63444558 -18.16796875 22.97265625 C-18.18675199 24.98246306 -18.09560094 26.99238034 -18 29 C-17.34 29.66 -16.68 30.32 -16 31 C-10.27551379 30.77551034 -6.71519547 28.98308285 -2 26 C-2 30.62 -2 35.24 -2 40 C-3.98 39.67 -5.96 39.34 -8 39 C-8.99 39.495 -8.99 39.495 -10 40 C-14.16323337 40.7600924 -17.60902024 40.83836641 -21.30078125 38.61328125 C-26.24847779 34.44346753 -28.55228093 31.26195324 -29.4375 24.8125 C-28.6787923 18.2009043 -25.78074701 13.04134414 -21.4375 8.0625 C-17.73565861 5.30786607 -13.25212918 4.6448192 -8.8046875 3.7734375 C-5.49637559 2.8611175 -3.29746975 0 0 0 Z " fill="#000000" transform="translate(71,78)"/>
<path d="M0 0 C4.75481646 0.57634139 7.97048212 2.55068521 12 5 C11.24569889 8.56804915 9.74685267 11.26045762 7.86303711 14.3828125 C3.11427482 22.26401609 0.55848158 28.85690807 -1 38 C-4.96 35.69 -8.92 33.38 -13 31 C-11.06134478 27.76890796 -9.1507692 24.75122591 -7 21.6875 C-2.33811189 14.68888385 -0.56094135 8.35609185 0 0 Z " fill="#000000" transform="translate(190,32)"/>
<path d="M0 0 C0.94074875 0.00007553 1.8814975 0.00015106 2.85075378 0.00022888 C3.86333755 0.00539017 4.87592133 0.01055145 5.91918945 0.01586914 C6.95815872 0.01728409 7.99712799 0.01869904 9.06758118 0.02015686 C12.38924018 0.02575884 15.71083203 0.03831167 19.0324707 0.05102539 C21.28312077 0.05604014 23.5337719 0.06060309 25.78442383 0.06469727 C31.30462907 0.0757289 36.82479509 0.09246896 42.3449707 0.11352539 C42.3449707 0.44352539 42.3449707 0.77352539 42.3449707 1.11352539 C29.4749707 1.44352539 16.6049707 1.77352539 3.3449707 2.11352539 C3.6749707 3.10352539 4.0049707 4.09352539 4.3449707 5.11352539 C3.3549707 5.60852539 3.3549707 5.60852539 2.3449707 6.11352539 C3.0049707 7.43352539 3.6649707 8.75352539 4.3449707 10.11352539 C5.53050537 10.10305176 6.71604004 10.09257812 7.9375 10.08178711 C12.34502125 10.04552797 16.75252935 10.02260335 21.16015625 10.00366211 C23.0661033 9.99361802 24.97203499 9.97998023 26.87792969 9.96264648 C29.62088822 9.93832821 32.36364261 9.92702627 35.10668945 9.91821289 C36.38040657 9.90272903 36.38040657 9.90272903 37.67985535 9.88693237 C42.02753026 9.88611188 45.38503721 10.07899956 49.3449707 12.11352539 C49.3449707 12.44352539 49.3449707 12.77352539 49.3449707 13.11352539 C43.40424283 13.18817689 37.4637934 13.24236311 31.52270508 13.27832031 C29.50540403 13.29332423 27.48813514 13.31373394 25.47094727 13.33984375 C22.55647807 13.37659893 19.64244344 13.39333607 16.7277832 13.40649414 C15.39434372 13.42971992 15.39434372 13.42971992 14.03396606 13.45341492 C5.46242147 13.45567299 -1.85156587 10.86932081 -9.76049805 7.80883789 C-12.68168722 6.73673135 -15.65246321 5.92672037 -18.6550293 5.11352539 C-18.3250293 4.45352539 -17.9950293 3.79352539 -17.6550293 3.11352539 C-15.4753418 2.51586914 -15.4753418 2.51586914 -12.7800293 2.05102539 C-1.13465565 -0.00304197 -1.13465565 -0.00304197 0 0 Z " fill="#000000" transform="translate(67.655029296875,121.886474609375)"/>
<path d="M0 0 C0.74886475 0.00523682 1.49772949 0.01047363 2.26928711 0.01586914 C3.07817383 0.0190918 3.88706055 0.02231445 4.72045898 0.02563477 C5.5705957 0.03401367 6.42073242 0.04239258 7.29663086 0.05102539 C8.15063477 0.05553711 9.00463867 0.06004883 9.88452148 0.06469727 C12.00108749 0.07652166 14.11761771 0.0944577 16.23413086 0.11352539 C16.23413086 2.75352539 16.23413086 5.39352539 16.23413086 8.11352539 C3.85913086 8.60852539 3.85913086 8.60852539 -8.76586914 9.11352539 C-2.02853392 0.13041176 -2.02853392 0.13041176 0 0 Z " fill="#F0C449" transform="translate(156.765869140625,123.886474609375)"/>
<path d="M0 0 C7.26 0 14.52 0 22 0 C22 3.3 22 6.6 22 10 C25.465 9.505 25.465 9.505 29 9 C29 9.66 29 10.32 29 11 C25.98786971 12.50606515 22.88717378 12.12160331 19.5859375 12.09765625 C18.85629791 12.0962413 18.12665833 12.09482635 17.37490845 12.09336853 C15.04156415 12.08776531 12.70831536 12.07521235 10.375 12.0625 C8.79427222 12.05748541 7.21354293 12.05292243 5.6328125 12.04882812 C1.75517146 12.03779484 -2.12239807 12.02052811 -6 12 C-6 11.34 -6 10.68 -6 10 C-3.44276771 8.72138385 -1.63262898 8.88663391 1.2265625 8.90234375 C2.2578125 8.90556641 3.2890625 8.90878906 4.3515625 8.91210938 C5.97191406 8.92467773 5.97191406 8.92467773 7.625 8.9375 C9.25695312 8.94426758 9.25695312 8.94426758 10.921875 8.95117188 C13.61463789 8.96298224 16.30729188 8.97945222 19 9 C19 6.36 19 3.72 19 1 C12.73 1 6.46 1 0 1 C0 0.67 0 0.34 0 0 Z " fill="#000000" transform="translate(154,123)"/>
<path d="M0 0 C2 3 2 3 1.8125 6.5625 C1 10 1 10 -2 12 C-4.83079592 12.35384949 -6.36830089 12.3920891 -8.8125 10.875 C-10.55198782 8.12844028 -10.39769128 6.18153026 -10 3 C-7.72386284 -1.01671263 -4.20715633 -0.45896251 0 0 Z " fill="#000000" transform="translate(203,20)"/>
<path d="M0 0 C1.9924325 0.37593066 3.9918674 0.71979545 6 1 C3.56442859 3.94832329 1.77235538 4.5808494 -2 5 C-8.02301778 5.38858179 -11.61112658 4.69443671 -17 2 C-17 0.68 -17 -0.64 -17 -2 C-11.27179113 -4.14807833 -5.36378146 -2.2584343 0 0 Z " fill="#F1D8B6" transform="translate(207,129)"/>
<path d="M0 0 C7.625 1.75 7.625 1.75 11 4 C10.67 4.99 10.34 5.98 10 7 C6.3962102 8.52160014 3.94779314 9 0 9 C0 6.03 0 3.06 0 0 Z " fill="#A2A3A3" transform="translate(176,124)"/>
<path d="M0 0 C0.515625 0.37125 1.03125 0.7425 1.5625 1.125 C1.5625 1.785 1.5625 2.445 1.5625 3.125 C0.9025 3.125 0.2425 3.125 -0.4375 3.125 C0.2225 4.445 0.8825 5.765 1.5625 7.125 C-3.04603797 6.40491594 -7.10987409 4.81204061 -11.4375 3.125 C-8.30127819 -0.01122181 -4.28009582 -1.53644465 0 0 Z " fill="#F0D7B5" transform="translate(67.4375,123.875)"/>
</svg>
