<?xml version="1.0" encoding="UTF-8"?>
<svg version="1.1" xmlns="http://www.w3.org/2000/svg" width="160" height="160">
<path d="M0 0 C2.04423756 1.2844696 3.81410147 2.62593575 5.52001953 4.33642578 C10.38461729 9.04185469 14.43006455 9.92584887 21.0625 10.5 C27.70422798 11.13443372 32.58863426 11.87595819 38.0625 15.875 C39.515625 18.1015625 39.515625 18.1015625 40.3125 20.5 C40.77849609 21.82644531 40.77849609 21.82644531 41.25390625 23.1796875 C41.75840874 24.86136246 42.23046453 26.55353219 42.65234375 28.2578125 C44.05834199 33.82666828 46.35714338 38.13160717 49.5625 42.875 C54.8867748 50.81715876 58.02929192 57.61876748 56.64453125 67.296875 C55.28385253 73.32404248 53.01167634 78.98937395 50.25 84.5 C48.33175448 89.95185569 49.42076284 94.45543597 50.87890625 99.953125 C53.49763468 109.86436623 53.40526563 117.06858775 48.4375 126.1875 C45.30294903 131.52348416 40.51483265 135.78323958 34.57275391 137.66235352 C31.94985922 138.20079428 29.33928317 138.6300743 26.6875 139 C24.90645492 139.257347 23.1275458 139.53008434 21.3515625 139.8203125 C20.57506348 139.92875488 19.79856445 140.03719727 18.99853516 140.14892578 C16.88736251 140.71301272 16.88736251 140.71301272 15.88696289 142.8137207 C15.61489014 143.49394287 15.34281738 144.17416504 15.0625 144.875 C10.06929943 151.73900395 5.21101078 155.26602351 -3.25 156.8125 C-11.39214475 157.48871202 -18.80723479 152.5556993 -25.80859375 148.92578125 C-30.01950946 146.84736597 -33.26931536 146.49236191 -37.9375 146.875 C-39.88849958 147.71762508 -39.88849958 147.71762508 -41.8125 148.8125 C-46.72308322 151.45738942 -51.52185158 152.78287681 -57.0390625 151.31640625 C-63.44873404 148.53228251 -68.45460433 143.56679235 -71.0625 137.07421875 C-71.413125 136.08035156 -71.76375 135.08648437 -72.125 134.0625 C-74.39634289 128.01323324 -77.75261909 124.68400149 -82.66088867 120.70385742 C-87.37379268 116.83830131 -90.07109491 112.67264583 -90.75 106.5625 C-91.44637804 97.24650934 -87.85992052 90.35106759 -83.3984375 82.40234375 C-79.51713137 73.0311688 -83.71496767 64.99669013 -87.09375 56.0703125 C-90.30826891 47.09262039 -91.93625098 37.62134436 -87.90234375 28.60546875 C-83.91906788 21.46137478 -77.26740001 16.18428 -70.125 12.375 C-63.92838962 11.40298269 -57.66442677 12.5298974 -51.48046875 13.3125 C-50.35253906 13.43625 -49.22460938 13.56 -48.0625 13.6875 C-46.51949219 13.88279297 -46.51949219 13.88279297 -44.9453125 14.08203125 C-38.24930946 13.62113753 -33.21302209 7.68198867 -28.34960938 3.41015625 C-20.54644472 -3.27250223 -9.32178165 -4.98980051 0 0 Z " fill="#EFC348" transform="translate(97.9375,2.125)"/>
<path d="M0 0 C8.15294398 2.9647069 15.03654371 7.93462868 22 13 C22.65097656 13.45761719 23.30195313 13.91523437 23.97265625 14.38671875 C27.88528465 17.31887762 27.88528465 17.31887762 28.375 20.2265625 C27.87788919 23.9031112 26.26527215 26.63215688 24.375 29.75 C23.83020996 30.67643311 23.83020996 30.67643311 23.27441406 31.62158203 C21.20256019 35.11202714 19.03157099 38.51699551 16.75 41.875 C15.83100414 43.24844435 14.91418323 44.62334761 14 46 C13.34257812 46.9590625 13.34257812 46.9590625 12.671875 47.9375 C9.55654431 53.08818008 10.06244866 56.56265049 11.41015625 62.3203125 C12.58272203 67.64733319 12.223329 72.69890769 11 78 C10.855625 79.134375 10.71125 80.26875 10.5625 81.4375 C9.55555556 87.81481481 9.55555556 87.81481481 8 91 C1.78929473 93.53028733 -4.98409041 94.93202573 -11.45751953 96.66821289 C-15.74984661 97.82476642 -20.03195482 98.98386863 -24.2734375 100.31640625 C-35.57727745 103.83506359 -35.57727745 103.83506359 -42 102 C-44.20447276 100.8169963 -46.01004134 99.54221796 -48 98 C-49.32 99.98 -50.64 101.96 -52 104 C-54.84276007 103.91638941 -56.52758254 103.47005538 -58.5625 101.4453125 C-59.58646763 100.2114315 -60.59012844 98.96034724 -61.5703125 97.69140625 C-63.08080282 95.74580934 -63.08080282 95.74580934 -66 94 C-66 93.34 -66 92.68 -66 92 C-66.82564453 91.65001953 -66.82564453 91.65001953 -67.66796875 91.29296875 C-70.63202817 89.64957902 -72.84977554 87.63979243 -75.3125 85.3125 C-76.21613281 84.48363281 -77.11976562 83.65476562 -78.05078125 82.80078125 C-80 80 -80 80 -80.0859375 76.6015625 C-78.80822536 72.36397045 -76.98668826 69.53308884 -74.3125 66.0625 C-73.67924805 65.20881836 -73.67924805 65.20881836 -73.03320312 64.33789062 C-72.60587891 63.76361328 -72.17855469 63.18933594 -71.73828125 62.59765625 C-71.30628418 62.00791016 -70.87428711 61.41816406 -70.42919922 60.81054688 C-69 59 -69 59 -67.21533203 57.22070312 C-65.30809069 55.17992829 -64.05843077 53.59360514 -63 51 C-63.33178318 46.5377622 -64.74852133 42.56929451 -66.25 38.375 C-66.99969381 36.17965088 -67.73466012 33.97920421 -68.453125 31.7734375 C-68.79504883 30.80841309 -69.13697266 29.84338867 -69.48925781 28.84912109 C-70.12826753 25.28447321 -69.42986067 23.29140444 -68 20 C-61.83789568 11.68803373 -54.69251492 7.97577213 -45 5 C-43.35380464 4.4176891 -41.70792442 3.83448578 -40.0625 3.25 C-33.40463391 0.97335394 -26.83878737 0.81756826 -19.875 0.8125 C-18.98167969 0.80025391 -18.08835938 0.78800781 -17.16796875 0.77539062 C-15.87439453 0.77249023 -15.87439453 0.77249023 -14.5546875 0.76953125 C-13.77593262 0.76542236 -12.99717773 0.76131348 -12.19482422 0.75708008 C-8.60345798 1.15456722 -6.52904035 2.47095965 -4 5 C-2.68 3.35 -1.36 1.7 0 0 Z " fill="#010101" transform="translate(111,30)"/>
<path d="M0 0 C1.87558594 -0.04253906 1.87558594 -0.04253906 3.7890625 -0.0859375 C8.06485336 0.46367396 10.13108288 1.55853901 13.375 4.375 C14.66015625 6.87109375 14.66015625 6.87109375 15.4375 9.8125 C15.74945313 10.96234375 16.06140625 12.1121875 16.3828125 13.296875 C16.71796635 14.65516586 17.04833911 16.01464165 17.375 17.375 C17.56416992 18.15681641 17.75333984 18.93863281 17.94824219 19.74414062 C18.79073581 23.24706901 19.62382226 26.751985 20.44067383 30.26098633 C22.72553357 40.04053821 25.19755373 49.8426612 28.375 59.375 C28.41454234 61.70799825 28.41901732 64.04208189 28.375 66.375 C22.37355678 69.432339 16.44201411 71.20611946 9.9375 72.8125 C3.58018286 74.38629437 -2.10277113 76.14334931 -7.8125 79.45703125 C-9.625 80.375 -9.625 80.375 -12.625 80.375 C-12.81908447 79.3837915 -12.81908447 79.3837915 -13.01708984 78.37255859 C-15.80157666 64.42622336 -19.14840183 50.90654427 -23.6875 37.4375 C-24.0985498 36.21401855 -24.50959961 34.99053711 -24.93310547 33.72998047 C-27.76769597 25.48338628 -30.71918639 17.18662722 -34.625 9.375 C-31.62765117 8.24284922 -28.62667493 7.12062531 -25.625 6 C-24.78582031 5.68289062 -23.94664063 5.36578125 -23.08203125 5.0390625 C-15.38186139 2.17388302 -8.31303639 0.08605628 0 0 Z " fill="#3C88D0" transform="translate(90.625,33.625)"/>
<path d="M0 0 C2.04423756 1.2844696 3.81410147 2.62593575 5.52001953 4.33642578 C10.38461729 9.04185469 14.43006455 9.92584887 21.0625 10.5 C27.70422798 11.13443372 32.58863426 11.87595819 38.0625 15.875 C39.515625 18.1015625 39.515625 18.1015625 40.3125 20.5 C40.77849609 21.82644531 40.77849609 21.82644531 41.25390625 23.1796875 C41.75840874 24.86136246 42.23046453 26.55353219 42.65234375 28.2578125 C44.05834199 33.82666828 46.35714338 38.13160717 49.5625 42.875 C54.8867748 50.81715876 58.02929192 57.61876748 56.64453125 67.296875 C55.28385253 73.32404248 53.01167634 78.98937395 50.25 84.5 C48.33175448 89.95185569 49.42076284 94.45543597 50.87890625 99.953125 C53.49763468 109.86436623 53.40526563 117.06858775 48.4375 126.1875 C45.30294903 131.52348416 40.51483265 135.78323958 34.57275391 137.66235352 C31.94985922 138.20079428 29.33928317 138.6300743 26.6875 139 C24.90645492 139.257347 23.1275458 139.53008434 21.3515625 139.8203125 C20.57506348 139.92875488 19.79856445 140.03719727 18.99853516 140.14892578 C16.88736251 140.71301272 16.88736251 140.71301272 15.88696289 142.8137207 C15.61489014 143.49394287 15.34281738 144.17416504 15.0625 144.875 C10.06929943 151.73900395 5.21101078 155.26602351 -3.25 156.8125 C-11.39214475 157.48871202 -18.80723479 152.5556993 -25.80859375 148.92578125 C-30.01950946 146.84736597 -33.26931536 146.49236191 -37.9375 146.875 C-39.88849958 147.71762508 -39.88849958 147.71762508 -41.8125 148.8125 C-46.72308322 151.45738942 -51.52185158 152.78287681 -57.0390625 151.31640625 C-63.44873404 148.53228251 -68.45460433 143.56679235 -71.0625 137.07421875 C-71.413125 136.08035156 -71.76375 135.08648437 -72.125 134.0625 C-74.39634289 128.01323324 -77.75261909 124.68400149 -82.66088867 120.70385742 C-87.37379268 116.83830131 -90.07109491 112.67264583 -90.75 106.5625 C-91.44637804 97.24650934 -87.85992052 90.35106759 -83.3984375 82.40234375 C-79.51713137 73.0311688 -83.71496767 64.99669013 -87.09375 56.0703125 C-90.30826891 47.09262039 -91.93625098 37.62134436 -87.90234375 28.60546875 C-83.91906788 21.46137478 -77.26740001 16.18428 -70.125 12.375 C-63.92838962 11.40298269 -57.66442677 12.5298974 -51.48046875 13.3125 C-50.35253906 13.43625 -49.22460938 13.56 -48.0625 13.6875 C-46.51949219 13.88279297 -46.51949219 13.88279297 -44.9453125 14.08203125 C-38.24930946 13.62113753 -33.21302209 7.68198867 -28.34960938 3.41015625 C-20.54644472 -3.27250223 -9.32178165 -4.98980051 0 0 Z M-30.4453125 14.75390625 C-35.77189545 19.28734597 -41.0724305 20.91686018 -47.9375 20.875 C-51.03018263 20.47230695 -54.07742731 19.9347567 -57.14453125 19.37109375 C-63.12206301 18.30935035 -67.00493951 18.33194454 -72.23828125 21.671875 C-78.00810085 25.75717256 -82.50575199 29.66688933 -83.9375 36.875 C-84.99821236 47.92520601 -83.26073654 55.02480054 -77.9375 64.875 C-75.09556532 73.40080403 -76.0078328 81.70081165 -79.80102539 89.66162109 C-80.54462509 91.10984341 -81.30752531 92.54835683 -82.09155273 93.97509766 C-84.89257832 99.15034966 -85.95090907 103.2367985 -84.30859375 109.1328125 C-82.06582378 113.61835245 -79.85010261 115.91419255 -75.66796875 118.625 C-70.71321818 122.20405233 -68.68008136 127.38228657 -66.5625 132.9375 C-64.38424003 138.36953579 -62.14051232 142.02173518 -56.9375 144.875 C-52.41298825 146.3557493 -49.88801287 146.08433241 -45.75 144 C-45.11707031 143.63132813 -44.48414063 143.26265625 -43.83203125 142.8828125 C-39.50685468 140.58199692 -34.7460661 140.17244976 -29.9375 140.875 C-24.27578745 142.77745718 -18.96073437 145.28571379 -13.75 148.1875 C-8.80458448 150.6960441 -4.18291352 150.7461696 1.12890625 149.3203125 C5.73655685 147.42675746 7.9904171 144.82863677 10.875 140.8125 C15.69299111 134.37906481 20.86374831 133.64642767 28.484375 132.515625 C34.9026521 131.4090255 38.83058957 128.8504782 43.0625 123.875 C46.22770809 119.31890474 48.5321434 115.03070561 48.0625 109.375 C47.47583169 106.13408475 46.51108354 103.06843986 45.5 99.9375 C42.72264527 90.98363997 43.56333743 84.72666114 47.87109375 76.41796875 C50.94018573 69.86721832 51.04564574 62.17142983 49 55.3125 C47.35948183 52.40190324 45.75922874 50.27351939 43.625 47.75 C37.90504937 40.67849985 35.93505172 31.60051722 35.04296875 22.6796875 C33.67094361 20.15428665 31.72820492 19.45971735 29.11499023 18.46484375 C24.92550851 17.26087232 20.62197298 17.07821439 16.29101562 16.79101562 C11.18813903 16.33630385 8.20113924 15.106459 4.0625 11.875 C3.34964844 11.33617187 2.63679688 10.79734375 1.90234375 10.2421875 C0.96068359 9.50355469 0.96068359 9.50355469 0 8.75 C-12.09053495 -0.33510786 -20.75657851 5.33518615 -30.4453125 14.75390625 Z " fill="#01612B" transform="translate(97.9375,2.125)"/>
<path d="M0 0 C0.66 0 1.32 0 2 0 C6.80731726 13.53596156 10.88891373 27.24976091 14.8125 41.0625 C15.17572861 42.32901901 15.17572861 42.32901901 15.54629517 43.62112427 C22.16472659 66.74765207 22.16472659 66.74765207 22 72 C20.05696186 74.9679714 17.90683161 76.98648737 15 79 C7.54460818 72.32148581 5.88623095 59.33924103 3.125 50 C2.24832208 47.05492662 1.3677046 44.11105362 0.484375 41.16796875 C0.27021942 40.4541655 0.05606384 39.74036224 -0.1645813 39.00492859 C-2.06856169 32.69746105 -4.1220878 26.44428467 -6.37451172 20.25195312 C-7.74107592 16.36813952 -8.5310101 13.11104592 -8 9 C-6.50390625 6.69921875 -6.50390625 6.69921875 -4.5625 4.6875 C-3.92441406 4.01074219 -3.28632812 3.33398438 -2.62890625 2.63671875 C-1.75340316 1.7570166 -0.87760513 0.87760513 0 0 Z " fill="#3C88D0" transform="translate(53,45)"/>
<path d="M0 0 C-1.10471388 9.20594901 -1.10471388 9.20594901 -3 13 C-5.80239961 14.26196525 -8.09044876 15.03583582 -11.03515625 15.73828125 C-11.8290123 15.94938034 -12.62286835 16.16047943 -13.44078064 16.37797546 C-15.97578279 17.04691295 -18.51808354 17.68041996 -21.0625 18.3125 C-23.60804603 18.96993349 -26.15167433 19.63435448 -28.69493103 20.30058289 C-30.27794837 20.7124901 -31.86270414 21.11778165 -33.44923401 21.51594543 C-37.01666629 22.17539997 -37.01666629 22.17539997 -40 24 C-41.99958364 24.04080783 -44.00045254 24.04254356 -46 24 C-46.72265625 22.27734375 -46.72265625 22.27734375 -47 20 C-41.63022179 11.49658351 -33.21891987 8.56689114 -24 6 C-22.6385083 5.61086426 -22.6385083 5.61086426 -21.24951172 5.21386719 C-2.94685337 0 -2.94685337 0 0 0 Z " fill="#FDFDFD" transform="translate(118,105)"/>
<path d="M0 0 C9.28548063 3.46183424 17.08548555 10.17136693 25 16 C24.40384833 20.64464439 22.42145048 24.33686084 20.1875 28.375 C19.84396484 29.00921875 19.50042969 29.6434375 19.14648438 30.296875 C15.8958198 36.27370667 12.52648501 42.18129973 9 48 C8.34 47.34 7.68 46.68 7 46 C7.30035156 45.40832031 7.60070312 44.81664062 7.91015625 44.20703125 C10.22753414 39.42101136 10.22753414 39.42101136 11.1875 34.25 C9.60449619 31.25062436 7.47578035 30.01536992 4.59375 28.30859375 C3 27 3 27 2.1015625 25.08984375 C1.96076704 22.19270632 2.99500795 21.2822259 4.875 19.125 C7.58342839 15.77708157 8.7794485 13.41103007 9 9 C5.27386271 5.93422072 5.27386271 5.93422072 0.75 5.125 C-1.19105428 5.98023576 -1.19105428 5.98023576 -3 8 C-3.75 6.25 -3.75 6.25 -4 4 C-2.0625 1.75 -2.0625 1.75 0 0 Z " fill="#FDFDFD" transform="translate(111,33)"/>
<path d="M0 0 C0.66 0 1.32 0 2 0 C2.7265625 2.2265625 2.7265625 2.2265625 3 5 C1.5234375 7.2109375 1.5234375 7.2109375 -0.625 9.375 C-4.15560195 13.10415953 -7.32679587 16.60214804 -10 21 C-9.50285356 25.86489054 -5.9848113 28.52950927 -2.6875 31.8125 C-2.10548828 32.42287109 -1.52347656 33.03324219 -0.92382812 33.66210938 C-0.35470703 34.23380859 0.21441406 34.80550781 0.80078125 35.39453125 C1.31809814 35.91893799 1.83541504 36.44334473 2.3684082 36.98364258 C3.97949655 38.21746222 3.97949655 38.21746222 6.09838867 37.79174805 C8.59658377 36.75160853 9.4584838 35.17213647 11 33 C11.66 33 12.32 33 13 33 C14.3125 36.0625 14.3125 36.0625 15 40 C13.70522987 42.6720754 11.98704538 44.80624856 10 47 C6.74792908 45.58261511 4.68638933 43.87473588 2.25 41.3125 C-0.47039286 38.51611851 -3.2323321 35.85986591 -6.1875 33.3125 C-6.83976562 32.74273437 -7.49203125 32.17296875 -8.1640625 31.5859375 C-9.78326954 30.18721822 -11.42149769 28.81058357 -13.0625 27.4375 C-15 25 -15 25 -14.9921875 22.32421875 C-13.63879351 17.78981607 -11.1090856 14.92758065 -8.0625 11.375 C-6.96683313 10.07301458 -5.87427305 8.76840701 -4.78515625 7.4609375 C-4.29926025 6.89165527 -3.81336426 6.32237305 -3.31274414 5.73583984 C-1.93237063 3.91057377 -0.95979907 2.07280285 0 0 Z " fill="#FDFDFD" transform="translate(48,84)"/>
<path d="M0 0 C2.21399303 3.79541663 3.00980198 7.75629421 4 12 C0.62537285 11.45276317 -1.08235 10.9451 -4 9 C-4 12.21507349 -3.34997377 13.93327466 -2.125 16.875 C-1.77695312 17.71804687 -1.42890625 18.56109375 -1.0703125 19.4296875 C-0.71710937 20.27789062 -0.36390625 21.12609375 0 22 C0.31195313 22.88945313 0.62390625 23.77890625 0.9453125 24.6953125 C1.89858035 27.31210669 1.89858035 27.31210669 5 29 C4.67 29.66 4.34 30.32 4 31 C-0.59774026 30.13951346 -3.11015843 27.40503655 -6.3125 24.1875 C-6.87517578 23.65318359 -7.43785156 23.11886719 -8.01757812 22.56835938 C-9.61328125 20.98046875 -9.61328125 20.98046875 -12 18 C-11.53836548 13.87918906 -9.19770852 11.53650522 -6.5625 8.4375 C-4.22275057 5.66961022 -2.01124027 3.0168604 0 0 Z " fill="#CF8D61" transform="translate(51,90)"/>
<path d="M0 0 C2.64 1.32 5.28 2.64 8 4 C7.57202798 9.70629354 5.15654048 13.41078616 2 18 C-1.55780196 17.39009109 -4.6828589 16.4216319 -8 15 C-7.43928208 11.04693863 -6.27794197 8.51358993 -4 5.25 C-3.46375 4.47140625 -2.9275 3.6928125 -2.375 2.890625 C-1 1 -1 1 0 0 Z " fill="#005F2A" transform="translate(124,45)"/>
<path d="M0 0 C8.15294398 2.9647069 15.03654371 7.93462868 22 13 C22.65097656 13.45761719 23.30195313 13.91523437 23.97265625 14.38671875 C27.88528465 17.31887762 27.88528465 17.31887762 28.375 20.2265625 C27.87794425 23.902704 26.2660697 26.63284278 24.375 29.75 C24.01325684 30.36182129 23.65151367 30.97364258 23.27880859 31.60400391 C22.20086357 33.4123078 21.10502983 35.20814224 20 37 C19.40703125 37.96164063 18.8140625 38.92328125 18.203125 39.9140625 C15.31738273 44.41410615 15.31738273 44.41410615 14 46 C13.34 46 12.68 46 12 46 C12.67488852 41.89954098 14.80165763 38.58866829 16.875 35.0625 C17.22691406 34.45470703 17.57882813 33.84691406 17.94140625 33.22070312 C19.49606383 30.54195298 21.05635661 27.91860944 22.8203125 25.37109375 C24.20665285 23.04826201 24.20665285 23.04826201 23.93359375 20.3671875 C22.78199931 17.44724511 21.73970042 16.71532292 19.0625 15.125 C14.67661431 12.43620065 10.5695387 9.5074644 6.45703125 6.41796875 C3.62430144 4.78318191 1.22942299 4.35986334 -2 4 C-2.33 4.99 -2.66 5.98 -3 7 C-3.33 6.34 -3.66 5.68 -4 5 C-2.68 3.35 -1.36 1.7 0 0 Z " fill="#010000" transform="translate(111,30)"/>
<path d="M0 0 C7.02537699 2.53647815 7.02537699 2.53647815 9.19921875 5.80078125 C10.97282374 10.25642306 11.29718036 14.24511428 11 19 C9.35 19.33 7.7 19.66 6 20 C2.42129931 14.2000368 -1 7.96410912 -1 1 C-0.67 0.67 -0.34 0.34 0 0 Z " fill="#00602A" transform="translate(47,98)"/>
<path d="M0 0 C2.49361571 1.20381448 4.68143083 2.45428722 7 4 C6.46968862 8.5076467 4.74778884 11.41954788 2 15 C1.34 15 0.68 15 0 15 C-0.5345256 13.75579353 -1.05208611 12.50429064 -1.5625 11.25 C-1.85253906 10.55390625 -2.14257812 9.8578125 -2.44140625 9.140625 C-3.09580408 6.63286269 -2.89681215 5.41110151 -2 3 C-1.34 2.01 -0.68 1.02 0 0 Z " fill="#07622D" transform="translate(112,39)"/>
<path d="M0 0 C0 0.66 0 1.32 0 2 C-1.39798828 2.32871094 -1.39798828 2.32871094 -2.82421875 2.6640625 C-11.75772865 4.88614889 -19.74791598 7.83508545 -28 12 C-29.66869141 12.83337891 -29.66869141 12.83337891 -31.37109375 13.68359375 C-32.67240234 14.33521484 -32.67240234 14.33521484 -34 15 C-32.96358339 11.56830945 -31.76330782 10.85743743 -28.62109375 8.96484375 C-27.23368383 8.27456017 -25.83866673 7.59941351 -24.4375 6.9375 C-23.71312744 6.58751953 -22.98875488 6.23753906 -22.24243164 5.87695312 C-14.81345273 2.3425929 -8.34300209 -0.53253205 0 0 Z " fill="#020202" transform="translate(111,111)"/>
<path d="M0 0 C2.64 1.32 5.28 2.64 8 4 C7.57202798 9.70629354 5.15654048 13.41078616 2 18 C-1.55780196 17.39009109 -4.6828589 16.4216319 -8 15 C-7.43928208 11.04693863 -6.27794197 8.51358993 -4 5.25 C-3.46375 4.47140625 -2.9275 3.6928125 -2.375 2.890625 C-1 1 -1 1 0 0 Z M0 2 C-1.32806027 3.41685043 -1.32806027 3.41685043 -2.5625 5.25 C-2.99691406 5.85328125 -3.43132812 6.4565625 -3.87890625 7.078125 C-5.03255742 9.05581272 -5.55972779 10.76401078 -6 13 C-2.94419026 15.58777208 -2.94419026 15.58777208 1 16 C1.83848804 14.54462432 2.67063934 13.08559627 3.5 11.625 C3.9640625 10.81289063 4.428125 10.00078125 4.90625 9.1640625 C6.15035859 7.10663126 6.15035859 7.10663126 6 5 C3.36315253 2.60179695 3.36315253 2.60179695 0 2 Z " fill="#010101" transform="translate(124,45)"/>
<path d="M0 0 C4.66990291 1.4368932 4.66990291 1.4368932 6.0625 3.8125 C5.96825972 7.11090963 4.16400579 8.63926641 2 11 C0 3.375 0 3.375 0 0 Z " fill="#00612B" transform="translate(115,63)"/>
<path d="M0 0 C-5.63066465 3.44096173 -11.53328431 4.11056499 -18 5 C-17 3 -17 3 -14.19921875 1.89453125 C-12.46091797 1.35892578 -12.46091797 1.35892578 -10.6875 0.8125 C-9.53636719 0.44769531 -8.38523437 0.08289063 -7.19921875 -0.29296875 C-4.20460307 -0.95478247 -2.80251881 -1.08640853 0 0 Z " fill="#000000" transform="translate(107,117)"/>
<path d="M0 0 C2.49361571 1.20381448 4.68143083 2.45428722 7 4 C6.625 6.4375 6.625 6.4375 6 9 C5.01 9.495 5.01 9.495 4 10 C3.67 8.35 3.34 6.7 3 5 C1.68 4.67 0.36 4.34 -1 4 C-1.33 4.99 -1.66 5.98 -2 7 C-2.33 6.01 -2.66 5.02 -3 4 C-1.5625 1.8125 -1.5625 1.8125 0 0 Z " fill="#D08D61" transform="translate(112,39)"/>
<path d="M0 0 C0.99 0.33 1.98 0.66 3 1 C2.67 2.32 2.34 3.64 2 5 C0.35 4.67 -1.3 4.34 -3 4 C-2.67 3.01 -2.34 2.02 -2 1 C-1.34 0.67 -0.68 0.34 0 0 Z " fill="#CF8D61" transform="translate(127,49)"/>
</svg>
