<?xml version="1.0" encoding="UTF-8"?>
<svg version="1.1" xmlns="http://www.w3.org/2000/svg" width="160" height="160">
<path d="M0 0 C2.04423756 1.2844696 3.81410147 2.62593575 5.52001953 4.33642578 C10.38461729 9.04185469 14.43006455 9.92584887 21.0625 10.5 C27.70422798 11.13443372 32.58863426 11.87595819 38.0625 15.875 C39.515625 18.1015625 39.515625 18.1015625 40.3125 20.5 C40.77849609 21.82644531 40.77849609 21.82644531 41.25390625 23.1796875 C41.75840874 24.86136246 42.23046453 26.55353219 42.65234375 28.2578125 C44.05834199 33.82666828 46.35714338 38.13160717 49.5625 42.875 C54.8867748 50.81715876 58.02929192 57.61876748 56.64453125 67.296875 C55.28385253 73.32404248 53.01167634 78.98937395 50.25 84.5 C48.33175448 89.95185569 49.42076284 94.45543597 50.87890625 99.953125 C53.49763468 109.86436623 53.40526563 117.06858775 48.4375 126.1875 C45.30294903 131.52348416 40.51483265 135.78323958 34.57275391 137.66235352 C31.94985922 138.20079428 29.33928317 138.6300743 26.6875 139 C24.90645492 139.257347 23.1275458 139.53008434 21.3515625 139.8203125 C20.57506348 139.92875488 19.79856445 140.03719727 18.99853516 140.14892578 C16.88736251 140.71301272 16.88736251 140.71301272 15.88696289 142.8137207 C15.61489014 143.49394287 15.34281738 144.17416504 15.0625 144.875 C10.06929943 151.73900395 5.21101078 155.26602351 -3.25 156.8125 C-11.39214475 157.48871202 -18.80723479 152.5556993 -25.80859375 148.92578125 C-30.01950946 146.84736597 -33.26931536 146.49236191 -37.9375 146.875 C-39.88849958 147.71762508 -39.88849958 147.71762508 -41.8125 148.8125 C-46.72308322 151.45738942 -51.52185158 152.78287681 -57.0390625 151.31640625 C-63.44873404 148.53228251 -68.45460433 143.56679235 -71.0625 137.07421875 C-71.413125 136.08035156 -71.76375 135.08648437 -72.125 134.0625 C-74.39634289 128.01323324 -77.75261909 124.68400149 -82.66088867 120.70385742 C-87.37379268 116.83830131 -90.07109491 112.67264583 -90.75 106.5625 C-91.44637804 97.24650934 -87.85992052 90.35106759 -83.3984375 82.40234375 C-79.51713137 73.0311688 -83.71496767 64.99669013 -87.09375 56.0703125 C-90.30826891 47.09262039 -91.93625098 37.62134436 -87.90234375 28.60546875 C-83.91906788 21.46137478 -77.26740001 16.18428 -70.125 12.375 C-63.92838962 11.40298269 -57.66442677 12.5298974 -51.48046875 13.3125 C-50.35253906 13.43625 -49.22460938 13.56 -48.0625 13.6875 C-46.51949219 13.88279297 -46.51949219 13.88279297 -44.9453125 14.08203125 C-38.24930946 13.62113753 -33.21302209 7.68198867 -28.34960938 3.41015625 C-20.54644472 -3.27250223 -9.32178165 -4.98980051 0 0 Z " fill="#EFC348" transform="translate(97.9375,2.125)"/>
<path d="M0 0 C1.10031303 0.00303635 1.10031303 0.00303635 2.22285461 0.00613403 C2.99192642 0.00438171 3.76099823 0.00262939 4.55337524 0.00082397 C7.10793787 -0.00359483 9.66243185 -0.00065646 12.21699524 0.00271606 C13.98437005 0.00204303 15.75174477 0.00107302 17.51911926 -0.00018311 C21.22815327 -0.00166012 24.93716324 0.00049458 28.64619446 0.00515747 C33.41147017 0.01085476 38.17668956 0.00757577 42.9419632 0.00158501 C46.59295581 -0.00202052 50.24393497 -0.00088206 53.89492798 0.0017128 C55.65248623 0.00238209 57.41004569 0.00155357 59.16760254 -0.00076675 C61.61964678 -0.00329314 64.07159855 0.0005471 66.52363586 0.00613403 C67.25717789 0.0041098 67.99071991 0.00208557 68.74649048 0 C73.7589826 0.02126592 73.7589826 0.02126592 74.87324524 1.13552856 C74.96671439 2.792913 74.99069501 4.454275 74.98677063 6.11428833 C74.98665733 7.70582481 74.98665733 7.70582481 74.98654175 9.32951355 C74.98138046 10.48366257 74.97621918 11.63781158 74.97090149 12.82693481 C74.96948654 14.00191025 74.96807159 15.17688568 74.96661377 16.38746643 C74.96099516 20.1576792 74.9484395 23.9278336 74.93574524 27.69802856 C74.93073264 30.24685583 74.92616932 32.79568403 74.92207336 35.34451294 C74.91101968 41.60820489 74.89426345 47.87186256 74.87324524 54.13552856 C74.54324524 54.13552856 74.21324524 54.13552856 73.87324524 54.13552856 C73.75207336 53.46005981 73.63090149 52.78459106 73.50605774 52.08865356 C73.33847961 51.19662231 73.17090149 50.30459106 72.99824524 49.38552856 C72.83582336 48.50380981 72.67340149 47.62209106 72.50605774 46.71365356 C71.97714108 44.128022 71.97714108 44.128022 70.74043274 41.93240356 C70.45426086 41.33943481 70.16808899 40.74646606 69.87324524 40.13552856 C70.36824524 39.14552856 70.36824524 39.14552856 70.87324524 38.13552856 C71.0192623 36.47318045 71.09414358 34.80402349 71.12324524 33.13552856 C71.14902649 32.24865356 71.17480774 31.36177856 71.20137024 30.44802856 C71.09308899 29.68490356 70.98480774 28.92177856 70.87324524 28.13552856 C66.7691739 25.39948101 63.75926599 25.80752496 58.99824524 26.63552856 C57.94637024 26.88302856 57.94637024 26.88302856 56.87324524 27.13552856 C55.7973375 32.51506728 54.63687659 38.53264719 57.06074524 43.63552856 C58.33367492 47.55223527 56.54088238 50.52231476 54.87324524 54.13552856 C51.40824524 54.63052856 51.40824524 54.63052856 47.87324524 55.13552856 C47.54324524 57.11552856 47.21324524 59.09552856 46.87324524 61.13552856 C39.48596422 61.16079549 32.09869426 61.17836017 24.71138 61.19046021 C22.19607629 61.1955022 19.68077552 61.20233559 17.16548157 61.21096802 C13.55894749 61.2230395 9.95245201 61.22875805 6.34590149 61.23318481 C4.64748863 61.24092674 4.64748863 61.24092674 2.9147644 61.24882507 C1.87376083 61.2489006 0.83275726 61.24897614 -0.23979187 61.24905396 C-1.62212257 61.25238487 -1.62212257 61.25238487 -3.03237915 61.25578308 C-5.12675476 61.13552856 -5.12675476 61.13552856 -6.12675476 60.13552856 C-6.22580628 58.29980226 -6.25474683 56.46025281 -6.25614929 54.62185669 C-6.25930145 53.44393555 -6.26245361 52.2660144 -6.26570129 51.05239868 C-6.26367706 49.77014404 -6.26165283 48.4878894 -6.25956726 47.16677856 C-6.26052399 45.86099854 -6.26148071 44.55521851 -6.26246643 43.20986938 C-6.26394309 40.44240134 -6.26178987 37.67496552 -6.25712585 34.90750122 C-6.25142857 31.35290207 -6.25470774 27.79837842 -6.26069832 24.24378204 C-6.26517223 20.86394143 -6.26204362 17.48412133 -6.25956726 14.10427856 C-6.26159149 12.82202393 -6.26361572 11.53976929 -6.26570129 10.21865845 C-6.26254913 9.0407373 -6.25939697 7.86281616 -6.25614929 6.64920044 C-6.2553537 5.60630859 -6.25455811 4.56341675 -6.2537384 3.48892212 C-6.01864586 -0.86805847 -3.82922503 0.01624581 0 0 Z " fill="#FEFEFE" transform="translate(45.12675476074219,33.864471435546875)"/>
<path d="M0 0 C2.04423756 1.2844696 3.81410147 2.62593575 5.52001953 4.33642578 C10.38461729 9.04185469 14.43006455 9.92584887 21.0625 10.5 C27.70422798 11.13443372 32.58863426 11.87595819 38.0625 15.875 C39.515625 18.1015625 39.515625 18.1015625 40.3125 20.5 C40.77849609 21.82644531 40.77849609 21.82644531 41.25390625 23.1796875 C41.75840874 24.86136246 42.23046453 26.55353219 42.65234375 28.2578125 C44.05834199 33.82666828 46.35714338 38.13160717 49.5625 42.875 C54.8867748 50.81715876 58.02929192 57.61876748 56.64453125 67.296875 C55.28385253 73.32404248 53.01167634 78.98937395 50.25 84.5 C48.33175448 89.95185569 49.42076284 94.45543597 50.87890625 99.953125 C53.49763468 109.86436623 53.40526563 117.06858775 48.4375 126.1875 C45.30294903 131.52348416 40.51483265 135.78323958 34.57275391 137.66235352 C31.94985922 138.20079428 29.33928317 138.6300743 26.6875 139 C24.90645492 139.257347 23.1275458 139.53008434 21.3515625 139.8203125 C20.57506348 139.92875488 19.79856445 140.03719727 18.99853516 140.14892578 C16.88736251 140.71301272 16.88736251 140.71301272 15.88696289 142.8137207 C15.61489014 143.49394287 15.34281738 144.17416504 15.0625 144.875 C10.06929943 151.73900395 5.21101078 155.26602351 -3.25 156.8125 C-11.39214475 157.48871202 -18.80723479 152.5556993 -25.80859375 148.92578125 C-30.01950946 146.84736597 -33.26931536 146.49236191 -37.9375 146.875 C-39.88849958 147.71762508 -39.88849958 147.71762508 -41.8125 148.8125 C-46.72308322 151.45738942 -51.52185158 152.78287681 -57.0390625 151.31640625 C-63.44873404 148.53228251 -68.45460433 143.56679235 -71.0625 137.07421875 C-71.413125 136.08035156 -71.76375 135.08648437 -72.125 134.0625 C-74.39634289 128.01323324 -77.75261909 124.68400149 -82.66088867 120.70385742 C-87.37379268 116.83830131 -90.07109491 112.67264583 -90.75 106.5625 C-91.44637804 97.24650934 -87.85992052 90.35106759 -83.3984375 82.40234375 C-79.51713137 73.0311688 -83.71496767 64.99669013 -87.09375 56.0703125 C-90.30826891 47.09262039 -91.93625098 37.62134436 -87.90234375 28.60546875 C-83.91906788 21.46137478 -77.26740001 16.18428 -70.125 12.375 C-63.92838962 11.40298269 -57.66442677 12.5298974 -51.48046875 13.3125 C-50.35253906 13.43625 -49.22460938 13.56 -48.0625 13.6875 C-46.51949219 13.88279297 -46.51949219 13.88279297 -44.9453125 14.08203125 C-38.24930946 13.62113753 -33.21302209 7.68198867 -28.34960938 3.41015625 C-20.54644472 -3.27250223 -9.32178165 -4.98980051 0 0 Z M-30.4453125 14.75390625 C-35.77189545 19.28734597 -41.0724305 20.91686018 -47.9375 20.875 C-51.03018263 20.47230695 -54.07742731 19.9347567 -57.14453125 19.37109375 C-63.12206301 18.30935035 -67.00493951 18.33194454 -72.23828125 21.671875 C-78.00810085 25.75717256 -82.50575199 29.66688933 -83.9375 36.875 C-84.99821236 47.92520601 -83.26073654 55.02480054 -77.9375 64.875 C-75.09556532 73.40080403 -76.0078328 81.70081165 -79.80102539 89.66162109 C-80.54462509 91.10984341 -81.30752531 92.54835683 -82.09155273 93.97509766 C-84.89257832 99.15034966 -85.95090907 103.2367985 -84.30859375 109.1328125 C-82.06582378 113.61835245 -79.85010261 115.91419255 -75.66796875 118.625 C-70.71321818 122.20405233 -68.68008136 127.38228657 -66.5625 132.9375 C-64.38424003 138.36953579 -62.14051232 142.02173518 -56.9375 144.875 C-52.41298825 146.3557493 -49.88801287 146.08433241 -45.75 144 C-45.11707031 143.63132813 -44.48414063 143.26265625 -43.83203125 142.8828125 C-39.50685468 140.58199692 -34.7460661 140.17244976 -29.9375 140.875 C-24.27578745 142.77745718 -18.96073437 145.28571379 -13.75 148.1875 C-8.80458448 150.6960441 -4.18291352 150.7461696 1.12890625 149.3203125 C5.73655685 147.42675746 7.9904171 144.82863677 10.875 140.8125 C15.69299111 134.37906481 20.86374831 133.64642767 28.484375 132.515625 C34.9026521 131.4090255 38.83058957 128.8504782 43.0625 123.875 C46.22770809 119.31890474 48.5321434 115.03070561 48.0625 109.375 C47.47583169 106.13408475 46.51108354 103.06843986 45.5 99.9375 C42.72264527 90.98363997 43.56333743 84.72666114 47.87109375 76.41796875 C50.94018573 69.86721832 51.04564574 62.17142983 49 55.3125 C47.35948183 52.40190324 45.75922874 50.27351939 43.625 47.75 C37.90504937 40.67849985 35.93505172 31.60051722 35.04296875 22.6796875 C33.67094361 20.15428665 31.72820492 19.45971735 29.11499023 18.46484375 C24.92550851 17.26087232 20.62197298 17.07821439 16.29101562 16.79101562 C11.18813903 16.33630385 8.20113924 15.106459 4.0625 11.875 C3.34964844 11.33617187 2.63679688 10.79734375 1.90234375 10.2421875 C0.96068359 9.50355469 0.96068359 9.50355469 0 8.75 C-12.09053495 -0.33510786 -20.75657851 5.33518615 -30.4453125 14.75390625 Z " fill="#01612B" transform="translate(97.9375,2.125)"/>
<path d="M0 0 C0.81652542 -0.00350464 1.63305084 -0.00700928 2.47431946 -0.01062012 C5.17559284 -0.01942896 7.87660477 -0.01359183 10.57788086 -0.00683594 C12.45210317 -0.0081827 14.32632515 -0.01012333 16.20054626 -0.01263428 C20.12884853 -0.01558428 24.05705986 -0.01129137 27.98535156 -0.00195312 C33.02853399 0.00944919 38.07150374 0.00287623 43.11467838 -0.00909805 C46.9844677 -0.01631328 50.8542063 -0.01403042 54.72399712 -0.00884247 C56.58399925 -0.00750544 58.44400595 -0.00915553 60.30400276 -0.01380157 C62.89940784 -0.01886214 65.49446471 -0.01116368 68.08984375 0 C68.8634021 -0.00404846 69.63696045 -0.00809692 70.43395996 -0.01226807 C75.75169447 0.03025893 75.75169447 0.03025893 77.98022461 2.25878906 C78.24523926 4.60508728 78.24523926 4.60508728 78.26733398 7.57885742 C78.28074829 8.69018539 78.2941626 9.80151337 78.3079834 10.94651794 C78.31589905 12.7543148 78.31589905 12.7543148 78.32397461 14.59863281 C78.33859741 15.83166641 78.35322021 17.06470001 78.36828613 18.33509827 C78.41493258 22.28877574 78.44945415 26.24246511 78.48022461 30.19628906 C78.52070757 35.39307251 78.57489508 40.58955457 78.63647461 45.78613281 C78.64439026 47.59089333 78.64439026 47.59089333 78.65246582 49.43211365 C78.66588013 50.54659378 78.67929443 51.66107391 78.69311523 52.80932617 C78.70405212 54.28253578 78.70405212 54.28253578 78.71520996 55.7855072 C78.81428399 58.51134817 78.81428399 58.51134817 80.98022461 61.25878906 C81.20042828 64.12476763 81.3082468 66.89122683 81.31616211 69.75878906 C81.32614731 71.00692383 81.32614731 71.00692383 81.33633423 72.28027344 C81.34645466 74.03871449 81.35115144 75.79719391 81.35083008 77.55566406 C81.35520872 80.24901278 81.39154761 82.94072974 81.42944336 85.63378906 C81.43531053 87.34211679 81.43928059 89.0504523 81.44116211 90.75878906 C81.45553314 91.56509766 81.46990417 92.37140625 81.48471069 93.20214844 C81.43971297 98.69319602 81.43971297 98.69319602 79.35205078 101.26293945 C74.20246321 103.42507715 68.41180081 102.7265216 62.91772461 102.69628906 C61.62543945 102.71626953 60.3331543 102.73625 59.00170898 102.75683594 C57.76614258 102.75619141 56.53057617 102.75554687 55.25756836 102.75488281 C54.12569092 102.75673584 52.99381348 102.75858887 51.82763672 102.76049805 C48.98022461 102.25878906 48.98022461 102.25878906 47.10620117 100.64868164 C45.6088223 97.47048524 45.64108254 95.03358608 45.68725586 91.52441406 C45.70175781 89.58115234 45.70175781 89.58115234 45.71655273 87.59863281 C45.74161678 86.23534552 45.76701159 84.87206427 45.79272461 83.50878906 C45.80777943 82.12989722 45.82146644 80.75098972 45.83374023 79.37207031 C45.86910552 76.00057992 45.91846557 72.62988252 45.98022461 69.25878906 C45.31037033 69.26767151 44.64051605 69.27655396 43.95036316 69.28570557 C36.99157222 69.37405712 30.03294004 69.43447278 23.07373047 69.47851562 C20.47503185 69.4986568 17.87637868 69.52597135 15.27783203 69.56054688 C11.54700519 69.60895295 7.81677641 69.63173307 4.08569336 69.64941406 C2.91999313 69.6700592 1.75429291 69.69070435 0.55326843 69.7119751 C-0.52762558 69.71227722 -1.60851959 69.71257935 -2.72216797 69.71289062 C-3.67481033 69.72177307 -4.6274527 69.73065552 -5.60896301 69.73980713 C-8.01977539 69.25878906 -8.01977539 69.25878906 -9.82661438 67.61825562 C-11.3513581 64.60308685 -11.40065907 62.43061829 -11.40795898 59.05322266 C-11.41741547 57.79867279 -11.42687195 56.54412292 -11.43661499 55.2515564 C-11.43124629 53.88677656 -11.42509359 52.52199961 -11.41821289 51.15722656 C-11.42023424 49.75525766 -11.42314619 48.35328977 -11.4269104 46.95132446 C-11.43132802 44.0175777 -11.42491918 41.08410543 -11.41088867 38.15039062 C-11.39376507 34.38615363 -11.4036609 30.62255684 -11.42160606 26.85834312 C-11.4324324 23.96559804 -11.42900351 21.0730055 -11.42122269 18.18025589 C-11.41921911 16.79194691 -11.42168551 15.40362416 -11.42866135 14.01533127 C-11.43625946 12.07874559 -11.4226299 10.14211142 -11.40795898 8.20556641 C-11.4055722 7.10288422 -11.40318542 6.00020203 -11.40072632 4.86410522 C-11.27501251 4.00435089 -11.14929871 3.14459656 -11.01977539 2.25878906 C-7.26932034 -0.2415143 -4.34149959 -0.0227811 0 0 Z M-7.01977539 5.25878906 C-7.11882691 7.09451537 -7.14776746 8.93406481 -7.14916992 10.77246094 C-7.15232208 11.95038208 -7.15547424 13.12830322 -7.15872192 14.34191895 C-7.15669769 15.62417358 -7.15467346 16.90642822 -7.15258789 18.22753906 C-7.15354462 19.53331909 -7.15450134 20.83909912 -7.15548706 22.18444824 C-7.15696372 24.95191628 -7.1548105 27.7193521 -7.15014648 30.48681641 C-7.1444492 34.04141556 -7.14772837 37.59593921 -7.15371895 41.15053558 C-7.15819286 44.5303762 -7.15506425 47.9101963 -7.15258789 51.29003906 C-7.15461212 52.5722937 -7.15663635 53.85454834 -7.15872192 55.17565918 C-7.15556976 56.35358032 -7.1524176 57.53150146 -7.14916992 58.74511719 C-7.14837433 59.78800903 -7.14757874 60.83090088 -7.14675903 61.90539551 C-7.28482946 64.21639542 -7.28482946 64.21639542 -6.01977539 65.25878906 C-4.39302761 65.3521934 -2.76223488 65.37624077 -1.1328125 65.37231445 C0.42869286 65.37220116 0.42869286 65.37220116 2.02174377 65.37208557 C3.72015663 65.36434364 3.72015663 65.36434364 5.45288086 65.35644531 C7.18204994 65.35432289 7.18204994 65.35432289 8.94615173 65.35215759 C12.64503525 65.34653911 16.34385925 65.33398348 20.04272461 65.32128906 C22.54337478 65.31627644 25.04402589 65.31171313 27.54467773 65.30761719 C33.68988049 65.29656368 39.8350483 65.27980758 45.98022461 65.25878906 C46.31022461 63.27878906 46.64022461 61.29878906 46.98022461 59.25878906 C49.29022461 58.92878906 51.60022461 58.59878906 53.98022461 58.25878906 C54.54039209 56.8493354 55.07770963 55.43078596 55.60522461 54.00878906 C55.90686523 53.21988281 56.20850586 52.43097656 56.51928711 51.61816406 C57.08939111 48.70000459 56.40904354 47.79100197 54.98022461 45.25878906 C54.74514134 40.40040155 55.02328672 36.04347853 55.98022461 31.25878906 C57.74936285 31.03652042 59.52066832 30.83145033 61.29272461 30.63378906 C62.77192383 30.45976563 62.77192383 30.45976563 64.28100586 30.28222656 C66.98022461 30.25878906 66.98022461 30.25878906 69.98022461 32.25878906 C70.30834961 34.50097656 70.30834961 34.50097656 70.23022461 37.13378906 C70.21475586 37.99746094 70.19928711 38.86113281 70.18334961 39.75097656 C69.98022461 42.25878906 69.98022461 42.25878906 69.33959961 44.45410156 C69.22100586 45.04964844 69.10241211 45.64519531 68.98022461 46.25878906 C69.64022461 46.91878906 70.30022461 47.57878906 70.98022461 48.25878906 C71.61303711 50.64160156 71.61303711 50.64160156 72.10522461 53.38378906 C72.27280273 54.29386719 72.44038086 55.20394531 72.61303711 56.14160156 C72.79479492 57.18960938 72.79479492 57.18960938 72.98022461 58.25878906 C73.31022461 58.25878906 73.64022461 58.25878906 73.98022461 58.25878906 C74.00549109 50.72909254 74.02305602 43.19940687 74.03515625 35.66967773 C74.04019831 33.1058715 74.04703175 30.54206815 74.05566406 27.97827148 C74.06773525 24.30223885 74.07345403 20.62624408 74.07788086 16.95019531 C74.08304214 15.7960463 74.08820343 14.64189728 74.09352112 13.45277405 C74.09363441 11.86123756 74.09363441 11.86123756 74.09375 10.23754883 C74.09597061 9.29823013 74.09819122 8.35891144 74.10047913 7.39112854 C74.21865106 5.27515865 74.21865106 5.27515865 72.98022461 4.25878906 C70.52117239 4.15847026 68.09019033 4.12260726 65.63061523 4.12939453 C64.86154343 4.12764221 64.09247162 4.12588989 63.3000946 4.12408447 C60.74553198 4.11966567 58.191038 4.12260404 55.63647461 4.12597656 C53.8690998 4.12530353 52.10172508 4.12433351 50.33435059 4.12307739 C46.62531658 4.12160038 42.91630661 4.12375508 39.20727539 4.12841797 C34.44199968 4.13411526 29.67678029 4.13083627 24.91150665 4.1248455 C21.26051404 4.12123998 17.60953488 4.12237844 13.95854187 4.1249733 C12.20098362 4.12564259 10.44342416 4.12481406 8.68586731 4.12249374 C6.23382307 4.11996735 3.7818713 4.1238076 1.32983398 4.12939453 C0.22952095 4.12635818 0.22952095 4.12635818 -0.89302063 4.1232605 C-4.24114922 3.84303549 -4.24114922 3.84303549 -7.01977539 5.25878906 Z " fill="#000000" transform="translate(46.019775390625,29.7412109375)"/>
<path d="M0 0 C1.13115234 -0.00386719 1.13115234 -0.00386719 2.28515625 -0.0078125 C5.86714129 0.17155052 9.37991392 0.66877725 12.9375 1.125 C12.96215288 5.80639254 12.98033739 10.48774759 12.99243164 15.16918945 C12.99747157 16.76294614 13.0043035 18.35669819 13.01293945 19.95043945 C13.02501999 22.23650253 13.03073155 24.52250467 13.03515625 26.80859375 C13.04031754 27.52526718 13.04547882 28.24194061 13.05079651 28.98033142 C13.05099263 30.69563672 12.99942007 32.41081266 12.9375 34.125 C11.19204395 35.87045605 8.77625783 35.2552316 6.40625 35.2578125 C5.28605469 35.25910156 4.16585937 35.26039062 3.01171875 35.26171875 C1.83222656 35.25785156 0.65273437 35.25398438 -0.5625 35.25 C-2.33173828 35.25580078 -2.33173828 35.25580078 -4.13671875 35.26171875 C-5.81701172 35.25978516 -5.81701172 35.25978516 -7.53125 35.2578125 C-8.56701172 35.25668457 -9.60277344 35.25555664 -10.66992188 35.25439453 C-13.0625 35.125 -13.0625 35.125 -14.0625 34.125 C-14.15093793 31.67669574 -14.17778752 29.25679401 -14.16015625 26.80859375 C-14.1587413 26.07753922 -14.15732635 25.34648468 -14.15586853 24.59327698 C-14.15025408 22.24964368 -14.13769922 19.90610461 -14.125 17.5625 C-14.11998686 15.97721492 -14.11542363 14.39192834 -14.11132812 12.80664062 C-14.10027997 8.9127239 -14.08300572 5.01887795 -14.0625 1.125 C-4.53406553 -0.01555426 -4.53406553 -0.01555426 0 0 Z " fill="#D08D61" transform="translate(110.0625,91.875)"/>
<path d="M0 0 C3.3 0 6.6 0 10 0 C11.03321725 3.28750944 11.20141923 4.57797876 9.6875 7.75 C8 10 8 10 6 11 C3 11.25 3 11.25 0 11 C-2 8 -2 8 -1.6875 4.9375 C-1 2 -1 2 0 0 Z " fill="#D08D61" transform="translate(104,65)"/>
<path d="M0 0 C2.67927341 4.01891012 2.15601248 6.24161923 2 11 C-2.29 11 -6.58 11 -11 11 C-11 7.75 -11 7.75 -10 4 C-7.07118362 1.7663752 -3.73229324 0 0 0 Z " fill="#3D89D1" transform="translate(114,77)"/>
</svg>
