<?xml version="1.0" encoding="UTF-8"?>
<svg version="1.1" xmlns="http://www.w3.org/2000/svg" width="160" height="160">
<path d="M0 0 C10.18549227 4.81176704 22.41386515 1.11927371 32.80078125 -1.640625 C38.9865274 -3.07116158 44.40237818 -2.39908565 49.90234375 0.75 C53.21083746 3.03068501 55.25823881 5.17704627 56.09375 9.1875 C56.29484375 10.3940625 56.29484375 10.3940625 56.5 11.625 C56.88077004 13.95285868 56.88077004 13.95285868 57.625 15.9375 C60.34395528 17.31713682 60.34395528 17.31713682 63.625 17.9375 C69.41297603 20.9127447 72.47642592 24.83832198 74.625 30.9375 C76.60648879 38.47712714 75.22369859 46.69468777 73.5 54.1875 C71.81208712 62.3392033 73.04961102 67.21886744 77.25 74.4375 C79.90478895 79.15043461 81.64667811 82.36157867 80.4765625 87.74609375 C77.96851139 94.20029868 73.97979246 99.61497589 69.625 104.9375 C68.21252977 109.17491068 68.65041689 113.36678061 68.83984375 117.78125 C69.00569488 125.80241393 65.84568913 131.32271636 60.53515625 137.140625 C57.78245571 139.73007745 55.01406395 141.27619414 51.625 142.9375 C50.965 143.2675 50.305 143.5975 49.625 143.9375 C43.02459522 144.60299536 37.38718058 144.06563012 31.125 141.875 C20.94889369 138.47486901 13.55282925 140.2327359 4.14453125 144.8359375 C0.10597363 146.60163246 -1.97537549 146.70568841 -6.375 145.9375 C-11.03608121 143.70735191 -15.14931517 140.99215904 -19.0625 137.625 C-23.54619347 134.35311558 -28.61473361 134.93250028 -33.9375 135.0625 C-38.53931512 135.08141157 -41.58977403 134.79950013 -45.375 131.9375 C-50.65443714 124.60494841 -52.27462714 115.87477941 -51.375 106.9375 C-51.12105469 106.09445313 -50.86710937 105.25140625 -50.60546875 104.3828125 C-49.17114698 99.50753159 -48.7709037 97.08399765 -51.2109375 92.453125 C-52.78636855 90.11366307 -54.48335828 87.89439165 -56.23828125 85.6875 C-60.70543315 79.93818567 -60.1586694 72.91444018 -59.375 65.9375 C-57.20841768 60.46108342 -53.60577166 57.03118695 -49.0625 53.4375 C-45.91579906 50.86729389 -44.80994353 49.24559193 -44.3125 45.1875 C-44.18680532 42.31160581 -44.44487349 40.72787954 -45.375 37.9375 C-46.6274113 20.81436841 -46.6274113 20.81436841 -41.375 13.9375 C-30.4934238 3.21477892 -15.1495807 -7.56128805 0 0 Z " fill="#EFC348" transform="translate(70.375,8.0625)"/>
<path d="M0 0 C2.44203672 -0.09819725 4.88276372 -0.16080229 7.32617188 -0.21386719 C8.4945459 -0.25870239 8.4945459 -0.25870239 9.68652344 -0.30444336 C13.1132894 -0.3392804 15.32486926 -0.25311452 18.16992188 1.74316406 C20.05972262 4.43078163 21.43591137 7.12001769 22.82617188 10.09863281 C23.48887234 11.33524931 24.15852363 12.56815849 24.83398438 13.79785156 C25.53996621 15.12714449 26.24569152 16.45657368 26.95117188 17.78613281 C27.49064453 18.75196289 27.49064453 18.75196289 28.04101562 19.73730469 C31.02753241 25.45866549 31.58188559 30.70436007 31.82617188 37.09863281 C31.87499512 38.10579346 31.92381836 39.1129541 31.97412109 40.15063477 C32.57263431 55.19846795 31.62159235 68.97488488 27.51220703 83.48583984 C26.50319361 87.32870875 25.68806444 91.22011625 24.82617188 95.09863281 C3.04617187 95.09863281 -18.73382813 95.09863281 -41.17382812 95.09863281 C-39.85382812 89.81863281 -38.53382812 84.53863281 -37.17382812 79.09863281 C-33.49097424 63.36405184 -30.04375079 42.83974671 -38.17382812 28.09863281 C-38.52251953 27.45780762 -38.87121094 26.81698242 -39.23046875 26.15673828 C-41.18677178 22.57586021 -43.18848423 19.02732858 -45.24804688 15.50488281 C-47.17382812 12.09863281 -47.17382812 12.09863281 -48.17382812 9.09863281 C-47.17382812 7.09863281 -47.17382812 7.09863281 -45.44335938 6.35253906 C-30.86533876 2.25029797 -15.09706354 0.68499704 0 0 Z " fill="#FEFEFE" transform="translate(95.173828125,33.9013671875)"/>
<path d="M0 0 C10.18549227 4.81176704 22.41386515 1.11927371 32.80078125 -1.640625 C38.9865274 -3.07116158 44.40237818 -2.39908565 49.90234375 0.75 C53.21083746 3.03068501 55.25823881 5.17704627 56.09375 9.1875 C56.29484375 10.3940625 56.29484375 10.3940625 56.5 11.625 C56.88077004 13.95285868 56.88077004 13.95285868 57.625 15.9375 C60.34395528 17.31713682 60.34395528 17.31713682 63.625 17.9375 C69.41297603 20.9127447 72.47642592 24.83832198 74.625 30.9375 C76.60648879 38.47712714 75.22369859 46.69468777 73.5 54.1875 C71.81208712 62.3392033 73.04961102 67.21886744 77.25 74.4375 C79.90478895 79.15043461 81.64667811 82.36157867 80.4765625 87.74609375 C77.96851139 94.20029868 73.97979246 99.61497589 69.625 104.9375 C68.21252977 109.17491068 68.65041689 113.36678061 68.83984375 117.78125 C69.00569488 125.80241393 65.84568913 131.32271636 60.53515625 137.140625 C57.78245571 139.73007745 55.01406395 141.27619414 51.625 142.9375 C50.965 143.2675 50.305 143.5975 49.625 143.9375 C43.02459522 144.60299536 37.38718058 144.06563012 31.125 141.875 C20.94889369 138.47486901 13.55282925 140.2327359 4.14453125 144.8359375 C0.10597363 146.60163246 -1.97537549 146.70568841 -6.375 145.9375 C-11.03608121 143.70735191 -15.14931517 140.99215904 -19.0625 137.625 C-23.54619347 134.35311558 -28.61473361 134.93250028 -33.9375 135.0625 C-38.53931512 135.08141157 -41.58977403 134.79950013 -45.375 131.9375 C-50.65443714 124.60494841 -52.27462714 115.87477941 -51.375 106.9375 C-51.12105469 106.09445313 -50.86710937 105.25140625 -50.60546875 104.3828125 C-49.17114698 99.50753159 -48.7709037 97.08399765 -51.2109375 92.453125 C-52.78636855 90.11366307 -54.48335828 87.89439165 -56.23828125 85.6875 C-60.70543315 79.93818567 -60.1586694 72.91444018 -59.375 65.9375 C-57.20841768 60.46108342 -53.60577166 57.03118695 -49.0625 53.4375 C-45.91579906 50.86729389 -44.80994353 49.24559193 -44.3125 45.1875 C-44.18680532 42.31160581 -44.44487349 40.72787954 -45.375 37.9375 C-46.6274113 20.81436841 -46.6274113 20.81436841 -41.375 13.9375 C-30.4934238 3.21477892 -15.1495807 -7.56128805 0 0 Z M-38.375 18.9375 C-40.89772726 22.89597295 -41.76173309 26.33448883 -41.0703125 30.98828125 C-40.72987701 32.29502977 -40.3528711 33.59275513 -39.94140625 34.87890625 C-38.15663581 41.36562366 -38.95133543 47.71023736 -41.890625 53.6953125 C-44.2769529 57.29992359 -47.29155765 60.1595756 -50.44921875 63.08984375 C-53.42274109 65.94273638 -53.62577824 67.97699482 -53.8125 72 C-53.76995072 78.51855008 -51.19801153 81.90526342 -47.375 86.9375 C-43.44358489 92.93319798 -42.9975019 96.96391586 -44.375 103.9375 C-45.74941085 111.80912576 -45.14503916 118.20075066 -41.6875 125.5 C-38.59287536 128.76190165 -36.82815643 128.79149487 -32.375 128.9375 C-31.65828125 128.90527344 -30.9415625 128.87304688 -30.203125 128.83984375 C-21.86889206 128.50934831 -17.14909772 131.39104422 -10.875 136.6875 C-7.35933071 139.47599667 -5.00945074 140.91851354 -0.48046875 140.51171875 C3.03729651 139.55232822 6.12146233 137.83814945 9.3203125 136.1171875 C12.1651731 134.66100462 14.43450336 134.13690604 17.625 133.9375 C18.3159375 133.875625 19.006875 133.81375 19.71875 133.75 C25.15076621 133.46781734 29.55424664 134.38675752 34.75 136 C41.8550481 138.16307532 46.53023057 138.6846108 53.3125 135.25 C57.72728303 132.48192094 60.9585553 128.93683409 62.625 123.9375 C62.60235453 122.10527539 62.57513853 120.27278662 62.50805664 118.44165039 C62.13606925 107.21638371 64.56863257 100.73284004 72.13671875 92.2734375 C74.18312309 89.06149578 74.53976617 86.74055241 74.625 82.9375 C73.28535627 79.39630762 73.28535627 79.39630762 71.25 76 C66.63978578 67.85406372 66.01751565 61.95294805 68.0625 53 C70.55387264 40.98723415 70.55387264 40.98723415 66.8203125 29.65625 C64.16203092 25.83388434 61.50785752 24.18531965 57.0625 22.9375 C52.92153018 20.52820847 52.7681126 19.37838 51.375 14.9375 C50.96507813 13.3596875 50.96507813 13.3596875 50.546875 11.75 C49.61480343 8.90639183 48.98333193 7.7120864 46.625 5.9375 C39.0922281 3.42657603 31.1606475 5.19488152 23.625 6.9375 C14.5191692 9.04322337 6.03255407 10.68542891 -2.6875 6.4375 C-15.59073686 0.23567721 -29.1085521 9.72366721 -38.375 18.9375 Z " fill="#01612B" transform="translate(70.375,8.0625)"/>
<path d="M0 0 C0.47953125 0.6496875 0.9590625 1.299375 1.453125 1.96875 C2.00097656 2.7009375 2.54882812 3.433125 3.11328125 4.1875 C3.63792969 4.9403125 4.16257812 5.693125 4.703125 6.46875 C5.50556641 7.44328125 5.50556641 7.44328125 6.32421875 8.4375 C18.00110591 23.57959807 17.52560505 50.26354882 15.35449219 68.37744141 C14.5250663 73.70618089 13.43643791 78.96586018 12.22021484 84.21875 C11.75029969 86.26347996 11.32754363 88.31890452 10.91015625 90.375 C9.24646448 98.09600048 9.24646448 98.09600048 7.07647705 99.58468628 C3.90170512 100.76727555 1.21129539 100.70798802 -2.17675781 100.69580078 C-2.86009186 100.69609283 -3.5434259 100.69638489 -4.24746704 100.69668579 C-6.49844206 100.69529624 -8.74908304 100.67975302 -11 100.6640625 C-12.56369852 100.66033103 -14.12739938 100.65748469 -15.69110107 100.65548706 C-19.80109138 100.64786114 -23.9109397 100.62822164 -28.02087402 100.6060791 C-32.21702148 100.58559822 -36.41319194 100.57648055 -40.609375 100.56640625 C-48.83860673 100.54497472 -57.06772319 100.51085139 -65.296875 100.46875 C-66.52224055 95.51151625 -65.53221339 91.97566185 -63.984375 87.21875 C-63.51521211 85.69453724 -63.0477451 84.16980138 -62.58203125 82.64453125 C-62.35789551 81.91959473 -62.13375977 81.1946582 -61.90283203 80.44775391 C-58.58359628 69.60741345 -59.30123785 61.57756871 -64.296875 51.46875 C-65.48009755 49.50003129 -66.70382546 47.56084601 -67.93701172 45.62304688 C-70.20088606 42.0366147 -72.33746077 38.37597455 -74.484375 34.71875 C-74.92201172 33.97753906 -75.35964844 33.23632812 -75.81054688 32.47265625 C-76.23271484 31.75464844 -76.65488281 31.03664062 -77.08984375 30.296875 C-77.4664917 29.6565332 -77.84313965 29.01619141 -78.23120117 28.35644531 C-79.32207911 26.42410437 -80.3212619 24.46142111 -81.296875 22.46875 C-80.01059789 21.29614389 -78.71767717 20.1308217 -77.421875 18.96875 C-76.70257813 18.3190625 -75.98328125 17.669375 -75.2421875 17 C-73.296875 15.46875 -73.296875 15.46875 -71.296875 15.46875 C-71.626875 13.48875 -71.956875 11.50875 -72.296875 9.46875 C-65.22359106 4.34061914 -57.98570993 2.10430855 -49.421875 0.90625 C-48.15657959 0.72400879 -48.15657959 0.72400879 -46.86572266 0.53808594 C-39.48932595 -0.46953863 -32.09074811 -1.17155929 -24.671875 -1.78125 C-23.59437988 -1.87349854 -22.51688477 -1.96574707 -21.40673828 -2.06079102 C-4.94271859 -3.29514573 -4.94271859 -3.29514573 0 0 Z M-52.109375 4.96875 C-52.93937012 5.08710205 -53.76936523 5.2054541 -54.62451172 5.32739258 C-61.12747854 6.29203514 -61.12747854 6.29203514 -67.296875 8.46875 C-68.50751246 10.27997848 -68.50751246 10.27997848 -68.296875 12.46875 C-67.34791776 14.6523779 -67.34791776 14.6523779 -65.796875 16.84375 C-63.10681086 21.07729356 -60.72357036 25.3618459 -58.484375 29.84375 C-57.90042969 31.00648437 -57.31648438 32.16921875 -56.71484375 33.3671875 C-48.281354 51.81399429 -56.77163375 78.36778499 -61.296875 96.46875 C-39.516875 96.46875 -17.736875 96.46875 4.703125 96.46875 C6.023125 91.18875 7.343125 85.90875 8.703125 80.46875 C9.280625 78.220625 9.858125 75.9725 10.453125 73.65625 C12.71440729 62.14091574 12.13187366 50.14674668 11.703125 38.46875 C11.66735352 37.48285889 11.63158203 36.49696777 11.59472656 35.48120117 C11.21748663 29.30736058 9.93903714 24.67985539 6.953125 19.28125 C6.59331543 18.59853027 6.23350586 17.91581055 5.86279297 17.21240234 C1.53030811 8.80916364 1.53030811 8.80916364 -4.296875 1.46875 C-6.98558775 1.26262546 -9.54590614 1.18633504 -12.234375 1.21875 C-13.43731201 1.22781372 -13.43731201 1.22781372 -14.66455078 1.23706055 C-27.24541359 1.43887295 -39.67340022 3.17046095 -52.109375 4.96875 Z " fill="#010101" transform="translate(115.296875,32.53125)"/>
<path d="M0 0 C1.65514646 3.39137046 3.2974466 6.78880817 4.9375 10.1875 C5.64036133 11.62706055 5.64036133 11.62706055 6.35742188 13.09570312 C7.0293457 14.49272461 7.0293457 14.49272461 7.71484375 15.91796875 C8.33540649 17.19837036 8.33540649 17.19837036 8.96850586 18.50463867 C11.01234408 23.44903405 11.11214382 28.0006111 11.0625 33.3125 C11.05347656 34.56675781 11.04445313 35.82101563 11.03515625 37.11328125 C11.02355469 38.06589844 11.01195313 39.01851562 11 40 C8.69851707 37.69851707 7.60679225 35.2307 6.19140625 32.33203125 C-0.70423141 18.7964329 -0.70423141 18.7964329 -10 7 C-8.71372289 5.82739389 -7.42080217 4.6620717 -6.125 3.5 C-5.04605469 2.52546875 -5.04605469 2.52546875 -3.9453125 1.53125 C-2 0 -2 0 0 0 Z " fill="#FDFDFD" transform="translate(47,49)"/>
<path d="M0 0 C5.55623482 -0.07083584 5.55623482 -0.07083584 7.78616333 1.04412842 C7.78616333 1.70412842 7.78616333 2.36412842 7.78616333 3.04412842 C0.83821393 3.9553349 -6.03297421 4.09586404 -13.02633667 4.04412842 C-24.1119669 3.96343229 -35.14662691 4.44165689 -46.21383667 5.04412842 C-46.21383667 4.38412842 -46.21383667 3.72412842 -46.21383667 3.04412842 C-37.46087392 0.57199428 -28.67371854 0.59762376 -19.65133667 0.41912842 C-18.07384338 0.3808547 -16.49636888 0.34179789 -14.91891479 0.30194092 C-9.94608678 0.18132077 -4.97323525 0.09913152 0 0 Z " fill="#070707" transform="translate(109.21383666992188,117.95587158203125)"/>
<path d="M0 0 C2.6129316 0.00542562 5.22569621 -0.00000974 7.83862305 -0.00634766 C9.50594113 -0.00568792 11.17325912 -0.00440894 12.84057617 -0.00244141 C14.00768883 -0.00547775 14.00768883 -0.00547775 15.19837952 -0.00857544 C18.40421347 0.00542413 20.96053074 0.10915803 24.02416992 1.13037109 C24.02416992 1.79037109 24.02416992 2.45037109 24.02416992 3.13037109 C6.53416992 3.13037109 -10.95583008 3.13037109 -28.97583008 3.13037109 C-28.97583008 2.47037109 -28.97583008 1.81037109 -28.97583008 1.13037109 C-19.31341565 0.06123437 -9.70699031 -0.02407074 0 0 Z " fill="#040404" transform="translate(97.975830078125,94.86962890625)"/>
<path d="M0 0 C0.83917969 -0.02578125 1.67835937 -0.0515625 2.54296875 -0.078125 C5.30553606 0.32128232 5.97205702 1.24513132 7.8125 3.25 C5.89171631 3.37060791 5.89171631 3.37060791 3.93212891 3.49365234 C-0.85803721 3.79623882 -5.6475886 4.10776495 -10.43701172 4.421875 C-12.5026119 4.55611804 -14.56836725 4.68799661 -16.63427734 4.81738281 C-19.6186125 5.00471433 -22.60227003 5.2007876 -25.5859375 5.3984375 C-26.49677094 5.45373627 -27.40760437 5.50903503 -28.34603882 5.56600952 C-34.42184499 5.97958174 -40.24648719 6.91577722 -46.1875 8.25 C-46.5175 7.26 -46.8475 6.27 -47.1875 5.25 C-38.07177655 3.37088157 -28.91005282 2.64866735 -19.64257812 1.94775391 C-13.07930174 1.44507522 -6.56795314 0.12219448 0 0 Z " fill="#030303" transform="translate(114.1875,61.75)"/>
<path d="M0 0 C0.495 1.485 0.495 1.485 1 3 C-0.76875488 3.07516846 -0.76875488 3.07516846 -2.57324219 3.15185547 C-7.00181088 3.34202926 -11.42989757 3.54195145 -15.85791016 3.74462891 C-17.76436994 3.83056927 -19.6709465 3.91396251 -21.57763672 3.99462891 C-31.8438194 4.43068596 -41.91971002 4.86390111 -52 7 C-52 6.34 -52 5.68 -52 5 C-46.36121938 3.17141307 -40.95784001 2.43727889 -35.0625 1.9375 C-34.14315674 1.85516113 -33.22381348 1.77282227 -32.27661133 1.68798828 C-21.52524287 0.7464395 -10.7981207 -0.07127472 0 0 Z " fill="#030303" transform="translate(121,72)"/>
<path d="M0 0 C0.495 0.99 0.495 0.99 1 2 C-0.2060791 2.11275269 -0.2060791 2.11275269 -1.43652344 2.2277832 C-27.85423473 4.62688562 -27.85423473 4.62688562 -54 9 C-53.67 8.01 -53.34 7.02 -53 6 C-35.31886443 2.5181004 -18.08385811 -0.63246654 0 0 Z " fill="#020202" transform="translate(111,42)"/>
<path d="M0 0 C0.86420563 -0.0033284 1.72841125 -0.0066568 2.61880493 -0.01008606 C4.42538934 -0.0151035 6.23198285 -0.01749601 8.03857422 -0.01733398 C10.80321159 -0.01954255 13.56746304 -0.03781241 16.33203125 -0.05664062 C18.09635281 -0.05957126 19.86067625 -0.06155826 21.625 -0.0625 C22.44793549 -0.06968552 23.27087097 -0.07687103 24.1187439 -0.08427429 C31.14040871 -0.0561545 31.14040871 -0.0561545 34.4140625 2.16796875 C30.95604514 4.34523894 29.3072707 3.99573182 25.4140625 3.16796875 C23.7883268 3.08601697 22.15977645 3.05005577 20.53198242 3.05444336 C19.12108589 3.05455666 19.12108589 3.05455666 17.6816864 3.05467224 C16.1782946 3.06241417 16.1782946 3.06241417 14.64453125 3.0703125 C13.09032219 3.07243492 13.09032219 3.07243492 11.50471497 3.07460022 C8.20363446 3.08018633 4.90262242 3.09273633 1.6015625 3.10546875 C-0.63997298 3.11048554 -2.88150952 3.11504814 -5.12304688 3.11914062 C-10.61070034 3.13015122 -16.09831403 3.14687557 -21.5859375 3.16796875 C-16.87964792 -1.53832083 -6.38568672 0.00876447 0 0 Z " fill="#010101" transform="translate(90.5859375,83.83203125)"/>
<path d="M0 0 C1.00088654 0.00007553 2.00177307 0.00015106 3.0329895 0.00022888 C4.1163559 0.00539017 5.19972229 0.01055145 6.31591797 0.01586914 C7.42289032 0.01728409 8.52986267 0.01869904 9.67037964 0.02015686 C13.2163154 0.02576767 16.7621887 0.03832203 20.30810547 0.05102539 C22.70784414 0.056039 25.1075838 0.06060215 27.50732422 0.06469727 C33.39927272 0.07574061 39.29118463 0.09248929 45.18310547 0.11352539 C45.67810547 1.10352539 45.67810547 1.10352539 46.18310547 2.11352539 C28.69310547 2.44352539 11.20310547 2.77352539 -6.81689453 3.11352539 C-6.81689453 2.45352539 -6.81689453 1.79352539 -6.81689453 1.11352539 C-4.35528436 -0.1172797 -2.7519246 -0.00691438 0 0 Z " fill="#000000" transform="translate(72.81689453125,107.886474609375)"/>
<path d="M0 0 C0 0.66 0 1.32 0 2 C-5.8994317 2.66532568 -11.75543446 3.10816733 -17.68896484 3.29125977 C-29.30338945 3.65335281 -40.55690752 5.02662505 -52 7 C-52 6.34 -52 5.68 -52 5 C-34.50910308 1.3633289 -17.85727158 -0.21118981 0 0 Z " fill="#020202" transform="translate(116,52)"/>
</svg>
